<svg xmlns="http://www.w3.org/2000/svg" width="30.68" height="29.49" viewBox="0 0 30.68 29.49">
  <g id="business-affiliate-network_1_" data-name="business-affiliate-network (1)" transform="translate(0 -0.911)">
    <g id="Layer_1_110_" transform="translate(0 0.911)">
      <g id="Group_15157" data-name="Group 15157">
        <path id="Path_14462" data-name="Path 14462" d="M13.816,12.823,11.95,11.059A2.735,2.735,0,0,0,12.3,9.735,2.787,2.787,0,1,0,11,12.076l1.864,1.762A6.339,6.339,0,0,1,13.816,12.823Z" transform="translate(-2.349 -3.014)" fill="#f06e38"/>
        <path id="Path_14463" data-name="Path 14463" d="M29.024,10.5,31.5,6.326a2.737,2.737,0,1,0-1.2-.7L27.829,9.785A6.193,6.193,0,0,1,29.024,10.5Z" transform="translate(-9.663 -0.911)" fill="#f06e38"/>
        <path id="Path_14464" data-name="Path 14464" d="M39.48,20.952a2.765,2.765,0,0,0-2.59,1.811l-3.445-.34c0,.026,0,.051,0,.076a6.344,6.344,0,0,1-.139,1.311l3.444.34a2.764,2.764,0,1,0,2.727-3.2Z" transform="translate(-11.566 -7.87)" fill="#f06e38"/>
        <path id="Path_14465" data-name="Path 14465" d="M26.68,35.834l-.77-3.366a6.307,6.307,0,0,1-1.359.314l.772,3.366a2.76,2.76,0,1,0,1.358-.315Z" transform="translate(-8.274 -11.869)" fill="#f06e38"/>
        <path id="Path_14466" data-name="Path 14466" d="M9.372,25.37,5.083,26.807a2.763,2.763,0,1,0,.453,1.51c0-.064-.014-.123-.019-.185l4.3-1.441A6.32,6.32,0,0,1,9.372,25.37Z" transform="translate(0 -9.404)" fill="#f06e38"/>
        <circle id="Ellipse_3243" data-name="Ellipse 3243" cx="4.746" cy="4.746" r="4.746" transform="translate(10.809 9.883)" fill="#f06e38"/>
      </g>
    </g>
  </g>
</svg>
