<svg xmlns="http://www.w3.org/2000/svg" width="23.121" height="20.305" viewBox="0 0 23.121 20.305">
  <g id="customer_1_" data-name="customer (1)" transform="translate(0 -32.432)">
    <ellipse id="Ellipse_3239" data-name="Ellipse 3239" cx="3.633" cy="3.964" rx="3.633" ry="3.964" transform="translate(7.927 32.432)" fill="#f06e38"/>
    <circle id="Ellipse_3240" data-name="Ellipse 3240" cx="2.312" cy="2.312" r="2.312" transform="translate(17.176 35.734)" fill="#f06e38"/>
    <circle id="Ellipse_3241" data-name="Ellipse 3241" cx="2.312" cy="2.312" r="2.312" transform="translate(1.321 35.734)" fill="#f06e38"/>
    <path id="Path_14438" data-name="Path 14438" d="M6.06,241.228a4.016,4.016,0,0,0-2.994-.695A3.061,3.061,0,0,0,0,243.581v4.932a1.327,1.327,0,0,0,1.328,1.323c3.162,0,2.781.057,2.781-.136C4.109,246.2,3.7,243.642,6.06,241.228Z" transform="translate(0 -198.576)" fill="#f06e38"/>
    <path id="Path_14439" data-name="Path 14439" d="M127.393,239.9a6.7,6.7,0,0,0-5.171,1.224c-2.477,1.984-2,4.656-2,7.924a1.584,1.584,0,0,0,1.581,1.581c9.532,0,9.911.307,10.477-.944.185-.423.135-.289.135-4.338A5.475,5.475,0,0,0,127.393,239.9Z" transform="translate(-114.757 -197.929)" fill="#f06e38"/>
    <path id="Path_14440" data-name="Path 14440" d="M380.8,240.534a4.013,4.013,0,0,0-2.994.7c2.347,2.4,1.95,4.784,1.95,8.471,0,.195-.316.136,2.734.136a1.374,1.374,0,0,0,1.375-1.37v-4.885A3.061,3.061,0,0,0,380.8,240.534Z" transform="translate(-360.749 -198.578)" fill="#f06e38"/>
  </g>
</svg>
