<svg id="help_1_" data-name="help (1)" xmlns="http://www.w3.org/2000/svg" width="28.584" height="28.584" viewBox="0 0 28.584 28.584">
  <path id="Path_14469" data-name="Path 14469" d="M216.172,206.932a9.268,9.268,0,0,0-5.083-8.253,12.6,12.6,0,0,1-12.41,12.41,9.243,9.243,0,0,0,12.954,3.8l4.5,1.244-1.244-4.5A9.206,9.206,0,0,0,216.172,206.932Zm0,0" transform="translate(-187.588 -187.588)" fill="#f06e38"/>
  <path id="Path_14470" data-name="Path 14470" d="M21.829,10.914A10.914,10.914,0,1,0,1.513,16.462L.04,21.788l5.327-1.473a10.917,10.917,0,0,0,16.462-9.4ZM9.24,8.374H7.565a3.35,3.35,0,1,1,5.61,2.472l-1.423,1.3v1.306H10.077V11.411l1.967-1.8a1.658,1.658,0,0,0,.545-1.236,1.675,1.675,0,1,0-3.35,0Zm.837,6.755h1.675V16.8H10.077Zm0,0" fill="#f06e38"/>
</svg>
