<svg xmlns="http://www.w3.org/2000/svg" width="33.604" height="18.843" viewBox="0 0 33.604 18.843">
  <g id="logistics-delivery-truck-in-movement" transform="translate(0 -134.412)">
    <g id="Group_15156" data-name="Group 15156" transform="translate(0 134.412)">
      <path id="Path_14441" data-name="Path 14441" d="M12.451,147.641a2.807,2.807,0,1,0,2.8,2.809A2.806,2.806,0,0,0,12.451,147.641Zm0,4.211a1.4,1.4,0,1,1,1.4-1.4A1.4,1.4,0,0,1,12.451,151.853ZM33.6,145.566v2.995a1.353,1.353,0,0,1-1.353,1.353H30.8a3.712,3.712,0,0,0-7.345,0H16.122a3.709,3.709,0,0,0-7.341,0H6.969a1.353,1.353,0,0,1-1.353-1.353v-2.995Zm-6.471,2.075a2.807,2.807,0,1,0,2.8,2.809A2.809,2.809,0,0,0,27.132,147.641Zm0,4.211a1.4,1.4,0,1,1,1.4-1.4A1.4,1.4,0,0,1,27.132,151.853Zm5.938-9.3-5.316-5.257a1.807,1.807,0,0,0-1.267-.523H23.8v-1.006a1.351,1.351,0,0,0-1.353-1.353H6.968a1.354,1.354,0,0,0-1.353,1.353v.212l-5.489.633,9.727,1.267L0,138.855l9.818,1.4L0,141.1l5.616,1.059v2.658H33.6v-.988A1.812,1.812,0,0,0,33.071,142.551Zm-2.318.176H25.608a.212.212,0,0,1-.212-.212v-3.972a.212.212,0,0,1,.212-.212h.978a.229.229,0,0,1,.149.059l4.162,3.972A.212.212,0,0,1,30.753,142.727Z" transform="translate(0 -134.412)" fill="#f06e38"/>
    </g>
  </g>
</svg>
