<svg xmlns="http://www.w3.org/2000/svg" width="28.584" height="25.613" viewBox="0 0 28.584 25.613">
  <path id="logout_1_" data-name="logout (1)" d="M27.44,50.8a1.826,1.826,0,0,1,.014,2.582,12.807,12.807,0,1,1,0-18.009,1.826,1.826,0,1,1-2.6,2.568,9.155,9.155,0,1,0,0,12.874A1.826,1.826,0,0,1,27.44,50.8Zm6.151-7.714L30.006,39.5a1.826,1.826,0,0,0-2.582,2.582l.468.468H18.349a1.826,1.826,0,0,0,0,3.652h9.543l-.468.468a1.826,1.826,0,1,0,2.582,2.582l3.585-3.585a1.826,1.826,0,0,0,0-2.582Z" transform="translate(-5.542 -31.57)" fill="#f06e38"/>
</svg>
