<svg xmlns="http://www.w3.org/2000/svg" width="24.499" height="24.5" viewBox="0 0 24.499 24.5">
  <g id="search" transform="translate(0)">
    <path id="Path_14442" data-name="Path 14442" d="M5.747,349.468.21,355a.718.718,0,0,0,0,1.015l1.015,1.015a.718.718,0,0,0,1.015,0L7.777,351.5A7.96,7.96,0,0,1,5.747,349.468Z" transform="translate(0 -332.746)" fill="#f06e38"/>
    <path id="Path_14443" data-name="Path 14443" d="M347.639,411.2a3.822,3.822,0,0,1-4.866.23c-.1-.072-.188-.149-.277-.23a4.061,4.061,0,0,0-1.5,3.149v.957a.718.718,0,0,0,.718.718h6.7a.718.718,0,0,0,.718-.718v-.957A4.061,4.061,0,0,0,347.639,411.2Z" transform="translate(-324.683 -391.524)" fill="#f06e38"/>
    <path id="Path_14444" data-name="Path 14444" d="M380.5,306.785a2.393,2.393,0,1,0-.573-4.715,7.9,7.9,0,0,1-1.714,3.028A2.4,2.4,0,0,0,380.5,306.785Z" transform="translate(-360.121 -287.549)" fill="#f06e38"/>
    <path id="Path_14445" data-name="Path 14445" d="M363.464,109.206a3.821,3.821,0,0,1-5.143,0,4.107,4.107,0,0,0-.751.806,7.92,7.92,0,0,1,2.723,4.017h3.949a.718.718,0,0,0,.718-.718v-.957A4.061,4.061,0,0,0,363.464,109.206Z" transform="translate(-340.461 -103.98)" fill="#f06e38"/>
    <path id="Path_14446" data-name="Path 14446" d="M1.5,109.206A4.061,4.061,0,0,0,0,112.354v.957a.718.718,0,0,0,.718.718H4.667a7.919,7.919,0,0,1,2.723-4.017,4.107,4.107,0,0,0-.751-.806,3.821,3.821,0,0,1-5.143,0Z" transform="translate(0 -103.98)" fill="#f06e38"/>
    <path id="Path_14447" data-name="Path 14447" d="M37.393,4.785a2.393,2.393,0,1,1,2.393-2.393A2.4,2.4,0,0,1,37.393,4.785Z" transform="translate(-33.326)" fill="#f06e38"/>
    <path id="Path_14448" data-name="Path 14448" d="M379.393,4.785a2.393,2.393,0,1,1,2.393-2.393A2.4,2.4,0,0,1,379.393,4.785Z" transform="translate(-358.961)" fill="#f06e38"/>
    <path id="Path_14449" data-name="Path 14449" d="M201.13,304.748a6.454,6.454,0,0,0,5.251,0v-1.226a2.628,2.628,0,0,0-5.251,0Z" transform="translate(-191.506 -286.597)" fill="#f06e38"/>
    <circle id="Ellipse_3242" data-name="Ellipse 3242" cx="2" cy="2" r="2" transform="translate(10.137 9)" fill="#f06e38"/>
    <path id="Path_14450" data-name="Path 14450" d="M127.46,121a6.457,6.457,0,0,0-4.061,11.479v-.358c0-.009,0-.017,0-.026a4.074,4.074,0,0,1,2-3.357,2.871,2.871,0,1,1,4.121,0,4.074,4.074,0,0,1,2,3.358c0,.009,0,.017,0,.026v.358A6.457,6.457,0,0,0,127.46,121Z" transform="translate(-115.211 -115.21)" fill="#f06e38"/>
  </g>
</svg>
