<svg xmlns="http://www.w3.org/2000/svg" width="25.803" height="26.929" viewBox="0 0 25.803 26.929">
  <g id="Solid" transform="translate(-40 -32)">
    <path id="Path_14421" data-name="Path 14421" d="M88,240h1.924v1.924H88Z" transform="translate(-45.115 -195.497)" fill="#f06e38"/>
    <path id="Path_14422" data-name="Path 14422" d="M237.62,34.885h.15v-.962h-1.443a.481.481,0,0,1-.467-.6L236.193,32h-2.615l.331,1.326a.481.481,0,0,1-.467.6H232v.962Z" transform="translate(-180.459)" fill="#f06e38"/>
    <path id="Path_14423" data-name="Path 14423" d="M45.771,370.4a.481.481,0,0,1-.481.481H42.4a.481.481,0,0,1-.481-.481V368H40v6.732h7.694V368H45.771Zm.962,3.366h-.962v-.962h.962Z" transform="translate(0 -315.803)" fill="#f06e38"/>
    <path id="Path_14424" data-name="Path 14424" d="M232,368h1.924v1.924H232Z" transform="translate(-180.459 -315.803)" fill="#f06e38"/>
    <path id="Path_14425" data-name="Path 14425" d="M346.885,65.443v9.274l.962-.288V64.962a.963.963,0,0,0-.962-.962H344v.962h2.4A.481.481,0,0,1,346.885,65.443Z" transform="translate(-285.727 -30.076)" fill="#f06e38"/>
    <path id="Path_14426" data-name="Path 14426" d="M155.847,64h-2.885a.963.963,0,0,0-.962.962v8.656h.962V65.443a.481.481,0,0,1,.481-.481h2.4Z" transform="translate(-105.268 -30.076)" fill="#f06e38"/>
    <path id="Path_14427" data-name="Path 14427" d="M45.771,242.4a.481.481,0,0,1-.481.481H42.4a.481.481,0,0,1-.481-.481V240H40v6.732h7.694V240H45.771Zm.962,3.366h-.962v-.962h.962Z" transform="translate(0 -195.497)" fill="#f06e38"/>
    <path id="Path_14428" data-name="Path 14428" d="M189.771,370.4a.481.481,0,0,1-.481.481H186.4a.481.481,0,0,1-.481-.481V368H184v6.732h7.694V368h-1.924Zm.962,3.366h-.962v-.962h.962Z" transform="translate(-135.344 -315.803)" fill="#f06e38"/>
    <path id="Path_14429" data-name="Path 14429" d="M216,128h.962v.962H216Z" transform="translate(-165.421 -90.229)" fill="#f06e38"/>
    <path id="Path_14430" data-name="Path 14430" d="M331.847,294.362a.481.481,0,0,1-.481.481H328v.962h3.847a.963.963,0,0,0,.962-.962v-7.237l-.962.288Z" transform="translate(-270.688 -240.242)" fill="#f06e38"/>
    <path id="Path_14431" data-name="Path 14431" d="M233.138,293.091l1.059.185,2.195-.657-.276-.921-2.195.657Z" transform="translate(-181.529 -244.088)" fill="#f06e38"/>
    <path id="Path_14432" data-name="Path 14432" d="M308.287,238.961a.481.481,0,0,0-.6-.323l-9.675,2.895.276.921,9.675-2.895A.481.481,0,0,0,308.287,238.961Z" transform="translate(-242.505 -194.198)" fill="#f06e38"/>
    <path id="Path_14433" data-name="Path 14433" d="M192.656,113.792h2.885v-5.7l-7.361,2.2a.482.482,0,0,1-.221.013l-2.118-.37a.481.481,0,0,1-.246-.824l1.567-1.473a.482.482,0,0,1,.191-.11l8.188-2.45V96H184v15.388h8.175a.481.481,0,0,1,.481.481Zm1.924-11.541h-3.847v-.962h3.847Zm-3.847-5.29h3.847v.962h-3.847Zm-1.924,0h.962v.962h-.962Zm0,1.924h5.771v.962h-5.771Zm0,2.4h.962v.962h-.962Zm0,1.924h5.771v.962h-5.771Zm-3.847-5.771a.481.481,0,0,1,.481-.481h1.924a.481.481,0,0,1,.481.481v1.924a.481.481,0,0,1-.481.481h-1.924a.481.481,0,0,1-.481-.481Zm0,6.251v-1.924a.481.481,0,0,1,.481-.481h1.924a.481.481,0,0,1,.481.481v1.924a.481.481,0,0,1-.481.481h-1.924A.481.481,0,0,1,184.962,103.694Z" transform="translate(-135.344 -60.153)" fill="#f06e38"/>
    <path id="Path_14434" data-name="Path 14434" d="M216,200h.962v.962H216Z" transform="translate(-165.421 -157.902)" fill="#f06e38"/>
    <path id="Path_14435" data-name="Path 14435" d="M88,368h1.924v1.924H88Z" transform="translate(-45.115 -315.803)" fill="#f06e38"/>
  </g>
</svg>
