<svg id="statistics" xmlns="http://www.w3.org/2000/svg" width="28.584" height="28.584" viewBox="0 0 28.584 28.584">
  <path id="Path_14467" data-name="Path 14467" d="M33.512,13.4a2.5,2.5,0,0,0,1.739-.706l2.479,1.239a2.461,2.461,0,0,0-.031.3,2.512,2.512,0,1,0,5.025,0,2.482,2.482,0,0,0-.252-1.076L45.835,9.8a2.482,2.482,0,0,0,1.076.252,2.515,2.515,0,0,0,2.512-2.512,2.475,2.475,0,0,0-.125-.744L52.22,4.6A2.511,2.511,0,1,0,51.1,2.512a2.475,2.475,0,0,0,.125.744L48.3,5.447a2.5,2.5,0,0,0-3.651,3.166l-3.363,3.363a2.469,2.469,0,0,0-2.815.454l-2.479-1.239a2.461,2.461,0,0,0,.031-.3A2.512,2.512,0,1,0,33.512,13.4Zm0,0" transform="translate(-29.269)" fill="#f06e38"/>
  <path id="Path_14468" data-name="Path 14468" d="M27.747,168.535h-.893v-17.7a.837.837,0,0,0-.837-.837h-3.35a.837.837,0,0,0-.837.837v17.7H20.154V155.862a.837.837,0,0,0-.837-.837h-3.35a.837.837,0,0,0-.837.837v12.673H13.455v-5.974a.837.837,0,0,0-.837-.837H9.267a.837.837,0,0,0-.837.837v5.974H6.755v-9.323a.837.837,0,0,0-.837-.837H2.568a.837.837,0,0,0-.837.837v9.323H.837a.837.837,0,0,0,0,1.675H27.747a.837.837,0,0,0,0-1.675Zm0,0" transform="translate(0 -141.626)" fill="#f06e38"/>
</svg>
