<svg xmlns="http://www.w3.org/2000/svg" width="23.121" height="27.053" viewBox="0 0 23.121 27.053">
  <g id="checkout" transform="translate(-34.01)">
    <path id="Path_14413" data-name="Path 14413" d="M57.131,32.08H37.775c-.369,0-.366-.4-.158-.58l4.3-3.7H55.711a.332.332,0,0,0,.317-.326l.173-8.9a.322.322,0,0,0-.27-.323l-3.045-.458A6.368,6.368,0,0,1,41.61,16.1l-2.03-.3.009,0-1.337-5.187a.814.814,0,0,0-.8-.608H34.01v1.618h2.809l3.639,15.233-3.9,3.383a1.994,1.994,0,0,0,1.216,3.523h3.338a1.6,1.6,0,0,0-.289.952,1.787,1.787,0,0,0,3.575,0,1.609,1.609,0,0,0-.289-.956h6.864a1.6,1.6,0,0,0-.289.952,1.787,1.787,0,0,0,3.575,0,1.609,1.609,0,0,0-.289-.956h3.161V32.08Z" transform="translate(0 -9.422)" fill="#fff"/>
    <path id="Path_14414" data-name="Path 14414" d="M193.34,0a4.716,4.716,0,1,0,4.721,4.716A4.724,4.724,0,0,0,193.34,0Zm-.292,6.967a.833.833,0,0,1-1.227-.034L190.4,5.241l1.257-1.06.827.984,2.479-2.641,1.2,1.128Z" transform="translate(-145.671)" fill="#fff"/>
  </g>
</svg>
