<svg id="dashboard" xmlns="http://www.w3.org/2000/svg" width="17.67" height="17.67" viewBox="0 0 17.67 17.67">
  <path id="Path_10785" data-name="Path 10785" d="M6.81,0H1.288A1.29,1.29,0,0,0,0,1.288V4.6A1.29,1.29,0,0,0,1.288,5.89H6.81A1.29,1.29,0,0,0,8.1,4.6V1.288A1.29,1.29,0,0,0,6.81,0Zm0,0" fill="#fff"/>
  <path id="Path_10786" data-name="Path 10786" d="M6.81,213.332H1.288A1.29,1.29,0,0,0,0,214.621v7.731a1.29,1.29,0,0,0,1.288,1.288H6.81A1.29,1.29,0,0,0,8.1,222.351v-7.731A1.29,1.29,0,0,0,6.81,213.332Zm0,0" transform="translate(0 -205.97)" fill="#fff"/>
  <path id="Path_10787" data-name="Path 10787" d="M284.142,341.332h-5.522a1.29,1.29,0,0,0-1.289,1.289v3.313a1.29,1.29,0,0,0,1.289,1.288h5.522a1.29,1.29,0,0,0,1.288-1.288v-3.313A1.29,1.29,0,0,0,284.142,341.332Zm0,0" transform="translate(-267.761 -329.552)" fill="#fff"/>
  <path id="Path_10788" data-name="Path 10788" d="M284.142,0h-5.522a1.29,1.29,0,0,0-1.289,1.288V9.019a1.29,1.29,0,0,0,1.289,1.289h5.522a1.29,1.29,0,0,0,1.288-1.289V1.288A1.29,1.29,0,0,0,284.142,0Zm0,0" transform="translate(-267.761)" fill="#fff"/>
</svg>
