<svg xmlns="http://www.w3.org/2000/svg" width="23.12" height="23.122" viewBox="0 0 23.12 23.122">
  <g id="features" transform="translate(-0.018 0.001)">
    <path id="Path_14415" data-name="Path 14415" d="M9.354,66.509l1.593-2.655-9.5-2.659L.18,63.318a1.13,1.13,0,0,0,.664,1.67l7.238,2.028a1.129,1.129,0,0,0,1.272-.507Z" transform="translate(0 -58.235)" fill="#fff"/>
    <path id="Path_14416" data-name="Path 14416" d="M34.439,150.019l3.415.933v-4.071a1.652,1.652,0,0,1,1.652-1.652h4.129v-3.463l-1.1,1.841a1.957,1.957,0,0,1-2.2.877l-6.189-1.732v6.87A.413.413,0,0,0,34.439,150.019Z" transform="translate(-32.469 -134.908)" fill="#fff"/>
    <path id="Path_14417" data-name="Path 14417" d="M65.81,4.939l8.8-2.465L66.031.03a.818.818,0,0,0-.444,0l-8.58,2.444Z" transform="translate(-54.231)" fill="#fff"/>
    <path id="Path_14418" data-name="Path 14418" d="M256.668,150.018a.413.413,0,0,0,.3-.4v-6.871l-6.189,1.734a1.927,1.927,0,0,1-.525.072,1.959,1.959,0,0,1-1.678-.95l-1.1-1.842v3.463H251.6a1.652,1.652,0,0,1,1.652,1.652v4.071Z" transform="translate(-235.478 -134.906)" fill="#fff"/>
    <path id="Path_14419" data-name="Path 14419" d="M253.621,66.508a1.13,1.13,0,0,0,1.273.507l7.238-2.028a1.13,1.13,0,0,0,.664-1.669l-1.269-2.124-9.5,2.659Z" transform="translate(-239.817 -58.234)" fill="#fff"/>
    <path id="Path_14420" data-name="Path 14420" d="M138.739,241.55V231.228a.826.826,0,0,0-.826-.826H128.83a.826.826,0,0,0-.826.826V241.55a.826.826,0,0,0,.826.826h9.084A.826.826,0,0,0,138.739,241.55Zm-7.14-1.773-1.239,1.239a.413.413,0,0,1-.584,0l-.413-.413a.413.413,0,0,1,.584-.584l.121.121.947-.947a.413.413,0,0,1,.584.584Zm0-2.477-1.239,1.239a.413.413,0,0,1-.584,0l-.413-.413a.413.413,0,0,1,.584-.584l.121.121.947-.947a.413.413,0,0,1,.584.584Zm0-2.477-1.239,1.239a.413.413,0,0,1-.584,0l-.413-.413a.413.413,0,0,1,.584-.584l.121.121.947-.947a.413.413,0,0,1,.584.584Zm0-2.477-1.239,1.239a.413.413,0,0,1-.584,0l-.413-.413a.413.413,0,0,1,.584-.584l.121.121.947-.947a.413.413,0,0,1,.584.584Zm5.489,8.379h-4.129a.413.413,0,1,1,0-.826h4.129a.413.413,0,1,1,0,.826Zm0-2.477h-4.129a.413.413,0,0,1,0-.826h4.129a.413.413,0,1,1,0,.826Zm0-2.477h-4.129a.413.413,0,1,1,0-.826h4.129a.413.413,0,1,1,0,.826Zm0-2.477h-4.129a.413.413,0,0,1,0-.826h4.129a.413.413,0,1,1,0,.826Z" transform="translate(-121.793 -219.255)" fill="#fff"/>
  </g>
</svg>
