<svg xmlns="http://www.w3.org/2000/svg" width="23.121" height="23.121" viewBox="0 0 23.121 23.121">
  <g id="gear" transform="translate(0)">
    <path id="Path_14436" data-name="Path 14436" d="M22.444,8.174H21.138a10.148,10.148,0,0,0-.408-.993l.921-.921a.677.677,0,0,0,0-.958L17.819,1.47a.677.677,0,0,0-.958,0l-.921.921a10.155,10.155,0,0,0-.993-.408V.677A.677.677,0,0,0,14.27,0H8.851a.677.677,0,0,0-.677.677V1.983a10.146,10.146,0,0,0-.993.408L6.26,1.47a.677.677,0,0,0-.958,0L1.47,5.3a.677.677,0,0,0,0,.958l.921.921a10.149,10.149,0,0,0-.408.993H.677A.677.677,0,0,0,0,8.851V14.27a.677.677,0,0,0,.677.677H1.983a10.146,10.146,0,0,0,.408.993l-.921.921a.677.677,0,0,0,0,.958L5.3,21.651a.677.677,0,0,0,.958,0l.921-.921a10.151,10.151,0,0,0,.993.408v1.306a.677.677,0,0,0,.677.677H14.27a.677.677,0,0,0,.677-.677V21.138a10.129,10.129,0,0,0,.993-.408l.921.921a.677.677,0,0,0,.958,0l3.832-3.832a.677.677,0,0,0,0-.958l-.921-.921a10.151,10.151,0,0,0,.408-.993h1.306a.677.677,0,0,0,.677-.677V8.851a.677.677,0,0,0-.677-.677ZM11.561,17.657a6.1,6.1,0,1,1,6.1-6.1A6.1,6.1,0,0,1,11.561,17.657Z" fill="#fff"/>
    <path id="Path_14437" data-name="Path 14437" d="M177.525,254.42a3.606,3.606,0,0,1-5.373,0A2.932,2.932,0,0,0,171,256.749v.9a.677.677,0,0,0,.677.677H178a.677.677,0,0,0,.677-.677v-.9A2.932,2.932,0,0,0,177.525,254.42Z" transform="translate(-163.278 -242.931)" fill="#fff"/>
    <ellipse id="Ellipse_3238" data-name="Ellipse 3238" cx="2" cy="2.5" rx="2" ry="2.5" transform="translate(9.725 6.397)" fill="#fff"/>
  </g>
</svg>
