<svg xmlns="http://www.w3.org/2000/svg" width="21.198" height="21.2" viewBox="0 0 21.198 21.2">
  <g id="Artworks" transform="translate(-0.002 -0.001)">
    <path id="Path_14371" data-name="Path 14371" d="M21.005,6.7,10.847.07a.461.461,0,0,0-.486,0L.2,6.7a.443.443,0,1,0,.486.742l1.079-.707V19.876A1.329,1.329,0,0,0,3.093,21.2H18.11a1.329,1.329,0,0,0,1.325-1.325V6.731c.182.088,1.14.826,1.325.777a.445.445,0,0,0,.246-.813ZM7.51,6.184h6.183a.442.442,0,1,1,0,.883H7.51a.442.442,0,0,1,0-.883Zm0,2.208h6.183a.442.442,0,1,1,0,.883H7.51a.442.442,0,1,1,0-.883Zm7.95,11.925h-.883v-2.65H11.043v2.65H10.16v-2.65H6.626v2.65H5.743v-7.95H15.46Zm-2.65-3.533H8.393V13.693a.442.442,0,0,1,.442-.442h3.533a.442.442,0,0,1,.442.442Z" transform="translate(0)" fill="#f06e38"/>
  </g>
</svg>
