<svg xmlns="http://www.w3.org/2000/svg" width="22.055" height="21.2" viewBox="0 0 22.055 21.2">
  <g id="business-affiliate-network" transform="translate(0 -0.911)">
    <g id="Layer_1_110_" transform="translate(0 0.911)">
      <g id="Group_15124" data-name="Group 15124">
        <path id="Path_14372" data-name="Path 14372" d="M11.833,11.177,10.492,9.909a1.966,1.966,0,0,0,.253-.952,2,2,0,1,0-.938,1.683l1.34,1.267A4.557,4.557,0,0,1,11.833,11.177Z" transform="translate(-3.59 -4.126)" fill="#f06e38"/>
        <path id="Path_14373" data-name="Path 14373" d="M28.688,7.8l1.783-3a1.968,1.968,0,1,0-.865-.5L27.829,7.291A4.452,4.452,0,0,1,28.688,7.8Z" transform="translate(-14.77 -0.911)" fill="#f06e38"/>
        <path id="Path_14374" data-name="Path 14374" d="M37.745,20.952a1.988,1.988,0,0,0-1.862,1.3l-2.477-.244c0,.019,0,.037,0,.055a4.561,4.561,0,0,1-.1.943l2.476.244a1.987,1.987,0,1,0,1.96-2.3Z" transform="translate(-17.678 -11.548)" fill="#f06e38"/>
        <path id="Path_14375" data-name="Path 14375" d="M25.878,34.888l-.554-2.42a4.534,4.534,0,0,1-.977.226l.555,2.42a1.984,1.984,0,1,0,.976-.226Z" transform="translate(-12.646 -17.659)" fill="#f06e38"/>
        <path id="Path_14376" data-name="Path 14376" d="M6.737,25.37,3.654,26.4a1.986,1.986,0,1,0,.326,1.085c0-.046-.01-.088-.014-.133l3.093-1.036A4.544,4.544,0,0,1,6.737,25.37Z" transform="translate(0 -13.892)" fill="#f06e38"/>
        <circle id="Ellipse_3213" data-name="Ellipse 3213" cx="3.412" cy="3.412" r="3.412" transform="translate(7.771 7.105)" fill="#f06e38"/>
      </g>
    </g>
  </g>
</svg>
