<svg xmlns="http://www.w3.org/2000/svg" width="29.494" height="29.493" viewBox="0 0 29.494 29.493">
  <g id="cancel" transform="translate(0 -0.001)" opacity="0.408">
    <g id="Group_15136" data-name="Group 15136" transform="translate(0 0.001)">
      <path id="Path_14382" data-name="Path 14382" d="M25.179,4.319a14.746,14.746,0,1,0,0,20.866A14.77,14.77,0,0,0,25.179,4.319ZM20.832,19.1a1.229,1.229,0,1,1-1.739,1.738L14.747,16.49,10.4,20.836A1.229,1.229,0,1,1,8.664,19.1l4.345-4.346L8.662,10.405A1.229,1.229,0,0,1,10.4,8.667l4.346,4.346,4.346-4.346a1.229,1.229,0,0,1,1.738,1.738l-4.346,4.346Z" transform="translate(0 -0.005)"/>
    </g>
  </g>
</svg>
