<svg xmlns="http://www.w3.org/2000/svg" width="23.824" height="23.711" viewBox="0 0 23.824 23.711">
  <g id="edit" transform="translate(0.5 0.684)">
    <path id="Path_10733" data-name="Path 10733" d="M20.9,51.115a.564.564,0,0,0-.564.564v5.007a1.693,1.693,0,0,1-1.692,1.692H2.819a1.693,1.693,0,0,1-1.692-1.692V41.991A1.694,1.694,0,0,1,2.819,40.3H7.826a.564.564,0,1,0,0-1.128H2.819A2.823,2.823,0,0,0,0,41.991V56.685A2.823,2.823,0,0,0,2.819,59.5H18.641a2.823,2.823,0,0,0,2.819-2.819V51.679A.564.564,0,0,0,20.9,51.115Zm0,0" transform="translate(0 -36.978)" fill="#f06e38" stroke="#f06e38" stroke-width="1"/>
    <path id="Path_10734" data-name="Path 10734" d="M123.327,1a2.538,2.538,0,0,0-3.589,0l-10.06,10.06a.564.564,0,0,0-.145.248l-1.323,4.776a.564.564,0,0,0,.694.694l4.776-1.323a.564.564,0,0,0,.248-.145l10.06-10.06a2.54,2.54,0,0,0,0-3.589ZM110.907,11.43,119.14,3.2,121.8,5.852l-8.234,8.233Zm-.53,1.064,2.121,2.122-2.934.813Zm12.815-8.038-.6.6L119.937,2.4l.6-.6a1.41,1.41,0,0,1,1.993,0l.662.662A1.412,1.412,0,0,1,123.191,4.457Zm0,0" transform="translate(-102.089 -0.261)" fill="#f06e38" stroke="#f06e38" stroke-width="1"/>
  </g>
</svg>
