<svg id="filter" xmlns="http://www.w3.org/2000/svg" width="26.5" height="24.279" viewBox="0 0 26.5 24.279">
  <path id="Path_916" data-name="Path 916" d="M89.73,82.555H73.942a3.256,3.256,0,0,0-6.174,0H65.3a1.037,1.037,0,1,0,0,2.073h2.464a3.256,3.256,0,0,0,6.174,0H89.73a1.037,1.037,0,1,0,0-2.073ZM70.855,84.775a1.184,1.184,0,1,1,1.184-1.184A1.185,1.185,0,0,1,70.855,84.775Z" transform="translate(-64.267 -80.334)" fill="#575757"/>
  <path id="Path_917" data-name="Path 917" d="M89.73,211.088H87.265a3.256,3.256,0,0,0-6.174,0H65.3a1.037,1.037,0,1,0,0,2.073H81.091a3.256,3.256,0,0,0,6.174,0H89.73a1.037,1.037,0,1,0,0-2.073Zm-5.551,2.221a1.184,1.184,0,1,1,1.184-1.184A1.185,1.185,0,0,1,84.178,213.308Z" transform="translate(-64.267 -199.985)" fill="#575757"/>
  <path id="Path_918" data-name="Path 918" d="M89.73,339.62H78.383a3.256,3.256,0,0,0-6.174,0H65.3a1.037,1.037,0,0,0,0,2.073h6.906a3.256,3.256,0,0,0,6.174,0H89.73a1.037,1.037,0,1,0,0-2.073ZM75.3,341.841a1.184,1.184,0,1,1,1.184-1.184A1.185,1.185,0,0,1,75.3,341.841Z" transform="translate(-64.267 -319.635)" fill="#575757"/>
</svg>
