<svg xmlns="http://www.w3.org/2000/svg" width="20.123" height="20.125" viewBox="0 0 20.123 20.125">
  <path id="invoice" d="M17.464,1H4.659a.915.915,0,0,0-.595.229A3.659,3.659,0,0,1,6.488,4.293a1.6,1.6,0,0,1,0,.366v15.55A.913.913,0,0,0,8,20.9L10.6,18.672,13.211,20.9a.915.915,0,0,0,1.189,0l2.607-2.232L19.614,20.9a.915.915,0,0,0,.595.22.97.97,0,0,0,.384-.082.915.915,0,0,0,.531-.832V4.659A3.659,3.659,0,0,0,17.464,1ZM16.55,13.806H11.062a.915.915,0,1,1,0-1.829H16.55a.915.915,0,1,1,0,1.829Zm0-3.659H11.062a.915.915,0,1,1,0-1.829H16.55a.915.915,0,1,1,0,1.829Zm0-3.659H11.062a.915.915,0,1,1,0-1.829H16.55a.915.915,0,1,1,0,1.829ZM4.659,4.659v7.317H1.915A.915.915,0,0,1,1,11.062V4.293a1.838,1.838,0,0,1,3.659.366Z" transform="translate(-1 -1)" fill="#f06e38"/>
</svg>
