<svg xmlns="http://www.w3.org/2000/svg" width="36.747" height="36.747" viewBox="0 0 36.747 36.747">
  <g id="Layer_2" data-name="Layer 2" transform="translate(19.065 -1.413) rotate(47)">
    <path id="Path_14351" data-name="Path 14351" d="M14,1A13,13,0,1,0,27,14,13,13,0,0,0,14,1Zm5.909,14.182H15.182v4.727a1.182,1.182,0,1,1-2.364,0V15.182H8.091a1.182,1.182,0,0,1,0-2.364h4.727V8.091a1.182,1.182,0,1,1,2.364,0v4.727h4.727a1.182,1.182,0,1,1,0,2.364Z" transform="translate(0 0)" fill="#f06e38"/>
  </g>
</svg>
