<svg id="location" xmlns="http://www.w3.org/2000/svg" width="19.689" height="22.402" viewBox="0 0 19.689 22.402">
  <g id="Group_15120" data-name="Group 15120" transform="translate(2.625)">
    <g id="Group_15119" data-name="Group 15119">
      <path id="Path_14369" data-name="Path 14369" d="M98.219,0a7.216,7.216,0,0,0-5.868,11.42l5.316,8.295a.656.656,0,0,0,1.1,0l5.339-8.323A7.219,7.219,0,0,0,98.219,0Zm0,10.5A3.282,3.282,0,1,1,101.5,7.219,3.285,3.285,0,0,1,98.219,10.5Z" transform="translate(-91 0)" fill="#f06e38"/>
    </g>
  </g>
  <g id="Group_15122" data-name="Group 15122" transform="translate(0 15.082)">
    <g id="Group_15121" data-name="Group 15121">
      <path id="Path_14370" data-name="Path 14370" d="M45.975,344.7l-3.3,5.167a2.17,2.17,0,0,1-3.653,0l-3.31-5.167C32.8,345.37,31,346.6,31,348.077c0,2.558,5.072,3.938,9.845,3.938s9.845-1.38,9.845-3.938C50.689,346.6,48.891,345.368,45.975,344.7Z" transform="translate(-31 -344.695)" fill="#f06e38"/>
    </g>
  </g>
</svg>
