<svg id="Group_15015" data-name="Group 15015" xmlns="http://www.w3.org/2000/svg" width="647.561" height="626.662" viewBox="0 0 647.561 626.662">
  <g id="Background_Complete" data-name="Background Complete" transform="translate(0 0)">
    <g id="Group_12981" data-name="Group 12981">
      <path id="Path_13737" data-name="Path 13737" d="M94.463,323.152l-20.837.423-10.568.17c-3.531.071-7.079.056-10.619.083l-.673,0,0-.68L51.682,305.4l0-.761.761,0,21.011.1c7,.008,14.007.17,21.011.247l.418.006,0,.409c-.027,3.009-.129,6.005-.2,8.967Zm0,0-.215-8.967c-.07-2.956-.171-5.881-.2-8.789l.412.412c-7,.077-14.007.241-21.011.249l-21.011.1.756-.756-.082,17.756-.674-.674c3.464.026,6.919.011,10.393.083l10.443.17Z" transform="translate(-28.238 93.089)" fill="#ebebeb"/>
      <path id="Path_13738" data-name="Path 13738" d="M78.991,337.929l-20.837.423-10.568.17c-3.531.071-7.078.056-10.618.083l-.673,0,0-.68-.082-17.756,0-.761.761,0,21.011.1c7,.008,14.007.17,21.011.247l.418.006,0,.409c-.027,3.009-.13,6.005-.2,8.967Zm0,0-.215-8.967c-.068-2.956-.17-5.881-.2-8.789l.414.412c-7,.077-14.007.241-21.011.249l-21.011.1.756-.756-.082,17.756-.674-.674c3.464.026,6.919.011,10.392.083l10.445.17Z" transform="translate(-36.209 100.703)" fill="#ebebeb"/>
      <path id="Path_13739" data-name="Path 13739" d="M273.724,177.077l-20.836.423-10.568.17c-3.531.071-7.079.056-10.619.083l-.673,0,0-.68-.08-17.757,0-.761.761,0,21.011.1c7.005.008,14.009.171,21.012.249l.417,0,0,.409c-.029,3.011-.13,6.005-.2,8.967Zm0,0-.215-8.967c-.068-2.956-.17-5.882-.2-8.79l.414.414c-7,.077-14.007.241-21.012.249l-21.011.094.756-.756-.08,17.757-.676-.676c3.464.027,6.92.012,10.393.083l10.443.17Z" transform="translate(64.131 17.82)" fill="#ebebeb"/>
      <path id="Path_13740" data-name="Path 13740" d="M258,191.854l-20.837.423-10.568.17c-3.531.071-7.078.056-10.618.082l-.673.006,0-.68-.082-17.757,0-.761.761,0,21.011.1c7,.008,14.007.171,21.011.249l.418,0,0,.409c-.027,3.011-.13,6.005-.2,8.967Zm0,0-.215-8.967c-.068-2.956-.17-5.882-.2-8.79l.414.414c-7,.077-14.007.241-21.011.249l-21.011.094.756-.756-.082,17.757-.674-.676c3.464.027,6.919.012,10.392.083l10.445.17Z" transform="translate(56.027 25.434)" fill="#ebebeb"/>
      <path id="Path_13741" data-name="Path 13741" d="M477.837,337.929,457,338.351l-10.568.17c-3.531.071-7.078.056-10.618.083l-.673,0,0-.68-.082-17.756,0-.761.761,0,21.011.1c7,.008,14.007.17,21.011.247l.418.006,0,.409c-.027,3.009-.13,6.005-.2,8.967Zm0,0-.215-8.967c-.068-2.956-.17-5.881-.2-8.789l.414.412c-7,.077-14.007.241-21.011.249l-21.011.1.756-.756-.082,17.756-.674-.674c3.464.026,6.919.011,10.392.083l10.445.17Z" transform="translate(169.306 100.703)" fill="#ebebeb"/>
      <path id="Path_13742" data-name="Path 13742" d="M462.367,60.676l-20.837.423-10.568.17c-3.531.071-7.079.056-10.619.083l-.671,0,0-.68-.082-17.757,0-.761.759,0,21.012.1c7,.008,14.007.171,21.011.249l.418,0,0,.409c-.029,3.011-.13,6.005-.2,8.967Zm0,0-.215-8.967c-.068-2.956-.17-5.882-.2-8.79l.414.414c-7,.077-14.007.241-21.011.247l-21.012.1.758-.756-.082,17.757L420.344,60c3.465.027,6.92.012,10.393.083l10.443.17Z" transform="translate(161.334 -42.158)" fill="#ebebeb"/>
      <path id="Path_13743" data-name="Path 13743" d="M477.837,75.453,457,75.876l-10.568.17c-3.531.071-7.078.056-10.618.083l-.673,0,0-.68L435.058,57.7l0-.761.761,0,21.011.094c7,.008,14.007.171,21.011.249l.418,0,0,.409c-.027,3.011-.13,6.005-.2,8.967Zm0,0-.215-8.967c-.068-2.956-.17-5.882-.2-8.79l.414.414c-7,.077-14.007.239-21.011.247l-21.011.1.756-.756-.082,17.757-.674-.676c3.464.027,6.919.012,10.392.083l10.445.17Z" transform="translate(169.306 -34.544)" fill="#ebebeb"/>
      <path id="Path_13744" data-name="Path 13744" d="M78.991,60.676,58.155,61.1l-10.568.17c-3.531.071-7.078.056-10.618.083l-.673,0,0-.68-.082-17.757,0-.761.761,0,21.011.1c7,.008,14.007.171,21.011.249l.418,0,0,.409c-.027,3.011-.13,6.005-.2,8.967Zm0,0-.215-8.967c-.068-2.956-.17-5.882-.2-8.79l.414.414c-7,.077-14.007.241-21.011.247l-21.011.1.756-.756-.082,17.757L36.97,60c3.464.027,6.919.012,10.392.083l10.445.17Z" transform="translate(-36.209 -42.158)" fill="#ebebeb"/>
      <path id="Path_13745" data-name="Path 13745" d="M242.269,177.077l-20.837.423-10.567.17c-3.531.071-7.079.056-10.619.083l-.673,0,0-.68-.08-17.757,0-.761.761,0,21.011.1c7,.008,14.009.171,21.012.249l.417,0,0,.409c-.029,3.011-.13,6.005-.2,8.967Zm0,0-.215-8.967c-.068-2.956-.17-5.882-.2-8.79l.414.414c-7,.077-14.009.241-21.012.249l-21.011.094.756-.756-.08,17.757-.676-.676c3.464.027,6.92.012,10.393.083l10.443.17Z" transform="translate(47.923 17.82)" fill="#ebebeb"/>
    </g>
    <g id="Group_12986" data-name="Group 12986" transform="translate(39.822 4.784)">
      <g id="Group_12982" data-name="Group 12982" transform="translate(0 178.746)">
        <rect id="Rectangle_1551" data-name="Rectangle 1551" width="72.334" height="72.334" transform="translate(79.403 0) rotate(90)" fill="#dbdbdb"/>
        <rect id="Rectangle_1552" data-name="Rectangle 1552" width="49.902" height="49.902" transform="translate(68.187 11.215) rotate(90)" fill="#fff"/>
        <path id="Path_13746" data-name="Path 13746" d="M124.459,170.68h-49.9v49.9Z" transform="translate(-56.272 -159.464)" fill="#ebebeb"/>
        <rect id="Rectangle_1553" data-name="Rectangle 1553" width="7.069" height="72.334" transform="translate(7.069 72.334) rotate(180)" fill="#c7c7c7"/>
      </g>
      <g id="Group_12983" data-name="Group 12983" transform="translate(89.545 178.746)">
        <rect id="Rectangle_1554" data-name="Rectangle 1554" width="72.334" height="72.333" transform="translate(79.403 0) rotate(90)" fill="#dbdbdb"/>
        <rect id="Rectangle_1555" data-name="Rectangle 1555" width="49.902" height="49.902" transform="translate(68.187 11.215) rotate(90)" fill="#fff"/>
        <path id="Path_13747" data-name="Path 13747" d="M168.9,170.68h-35.25v35.25Z" transform="translate(-115.367 -159.464)" fill="#ebebeb"/>
        <rect id="Rectangle_1556" data-name="Rectangle 1556" width="7.069" height="72.334" transform="translate(7.069 72.334) rotate(180)" fill="#c7c7c7"/>
      </g>
      <g id="Group_12984" data-name="Group 12984" transform="translate(0 268.395)">
        <rect id="Rectangle_1557" data-name="Rectangle 1557" width="94.535" height="161.878" transform="translate(168.948 0) rotate(90)" fill="#dbdbdb"/>
        <rect id="Rectangle_1558" data-name="Rectangle 1558" width="71.157" height="138.246" transform="translate(157.131 11.689) rotate(90)" fill="#fff"/>
        <path id="Path_13748" data-name="Path 13748" d="M165.577,230.156H74.953V276.8Z" transform="translate(-56.068 -218.467)" fill="#ebebeb"/>
        <rect id="Rectangle_1559" data-name="Rectangle 1559" width="7.069" height="94.535" transform="translate(7.069 94.535) rotate(180)" fill="#c7c7c7"/>
      </g>
      <g id="Group_12985" data-name="Group 12985" transform="translate(0)">
        <rect id="Rectangle_1560" data-name="Rectangle 1560" width="161.879" height="161.878" transform="translate(168.948 0) rotate(90)" fill="#dbdbdb"/>
        <rect id="Rectangle_1561" data-name="Rectangle 1561" width="138.259" height="138.234" transform="translate(18.878 11.816)" fill="#fff"/>
        <path id="Path_13749" data-name="Path 13749" d="M74.948,152.639c21.018-20.894,80.57-80.147,99.7-99.526h-99.7Z" transform="translate(-56.07 -41.297)" fill="#ebebeb"/>
        <rect id="Rectangle_1562" data-name="Rectangle 1562" width="7.069" height="161.879" transform="translate(7.069 161.879) rotate(180)" fill="#c7c7c7"/>
      </g>
    </g>
  </g>
  <g id="Shadow" transform="translate(17.371 560.148)">
    <ellipse id="Ellipse_3208" data-name="Ellipse 3208" cx="306.581" cy="33.257" rx="306.581" ry="33.257" fill="#ebebeb"/>
  </g>
  <g id="Device" transform="translate(336.889 4.784)">
    <g id="Group_13019" data-name="Group 13019">
      <g id="Group_13018" data-name="Group 13018">
        <path id="Path_13750" data-name="Path 13750" d="M523.43,45.315H282.872A24.56,24.56,0,0,0,258.538,70.1v495.22a24.578,24.578,0,0,0,24.334,24.788H523.43a24.592,24.592,0,0,0,24.361-24.788V70.1A24.575,24.575,0,0,0,523.43,45.315Zm9.149,504.7c0,13.034-9.761,23.579-21.8,23.579H295.565c-12.068,0-21.829-10.545-21.829-23.579V88.873c0-26.554,9.761-27.848,21.829-27.848h43.1c2.5,0,4.553,2.846,4.553,6.375v1.523c0,8.267,4.526,8.3,10.09,8.3h99.7c5.6,0,10.089-.029,10.089-8.3V67.4c0-3.529,2.02-6.375,4.567-6.375h43.117c12.039,0,21.8,3.529,21.8,27.848Z" transform="translate(-258.538 -45.315)" fill="#263238"/>
        <path id="Path_13751" data-name="Path 13751" d="M372.773,60.7H345.578a1.68,1.68,0,0,1-1.68-1.68h0a1.68,1.68,0,0,1,1.68-1.679h27.195a1.679,1.679,0,0,1,1.679,1.679h0A1.679,1.679,0,0,1,372.773,60.7Z" transform="translate(-214.554 -39.12)" fill="#fff"/>
        <line id="Line_28" data-name="Line 28" x1="0.811" transform="translate(14.387 475.468)" fill="none"/>
        <g id="Group_13017" data-name="Group 13017" transform="translate(14.237 15.71)">
          <path id="Path_13752" data-name="Path 13752" d="M527.415,83.531V544.669c0,13.034-9.763,23.579-21.8,23.579H290.4c-12.068,0-21.829-10.545-21.829-23.579V83.531c0-26.554,9.761-27.848,21.829-27.848h43.1c2.5,0,4.553,2.846,4.553,6.375v1.523c0,8.267,4.525,8.3,10.089,8.3h99.7c5.607,0,10.089-.029,10.089-8.3V62.058c0-3.529,2.02-6.375,4.567-6.375h43.117C517.652,55.683,527.415,59.212,527.415,83.531Z" transform="translate(-267.606 -55.683)" fill="#fff"/>
          <g id="Group_12990" data-name="Group 12990" transform="translate(0 29.174)" opacity="0.2">
            <g id="Group_12987" data-name="Group 12987" transform="translate(0 303.85)">
              <path id="Path_13753" data-name="Path 13753" d="M523.531,433.364A56.767,56.767,0,0,1,520.018,447a20.8,20.8,0,0,1-14.342,5.828h-215.4c-12.071,0-21.84-10.551-21.84-23.594V304.973a83.817,83.817,0,0,1,30.619-19.949c25.837-9.651,53.813-5.726,69.174,7.79,22.709,19.994,57.091,73.986,76.612,75.062,1.329.074,2.878.177,4.619.326,14.136,1.136,40.312,5.031,57.606,19.447C518.691,397.331,526.319,411.776,523.531,433.364Z" transform="translate(-267.677 -273.285)" fill="#fcf5c4"/>
              <path id="Path_13754" data-name="Path 13754" d="M505.933,455.76H290.53c-12.46,0-22.6-10.925-22.6-24.352V314.946l.161-.206a159.14,159.14,0,0,1,13.284-14.857,83.988,83.988,0,0,1,17.556-13.34c32.653-18.629,70.883-11.684,87.577,5.426,7.7,7.9,16.438,20.177,25.687,33.172,13.142,18.465,26.731,37.558,37.92,44.6a17.078,17.078,0,0,0,6.632,2.679c14.286,1.874,34.73,6.3,50.978,16.774,9.795,6.288,16.762,14.034,20.708,23.025l.064.3v18.888a25.173,25.173,0,0,1-7.705,18.318A21.612,21.612,0,0,1,505.933,455.76ZM269.449,315.469v115.94c0,12.593,9.457,22.837,21.081,22.837h215.4a20.089,20.089,0,0,0,13.821-5.622,23.652,23.652,0,0,0,7.231-17.215V412.681c-3.835-8.651-10.587-16.124-20.076-22.217-16.012-10.316-36.224-14.692-50.36-16.544a18.562,18.562,0,0,1-7.238-2.9c-11.44-7.2-25.119-26.414-38.347-45-9.214-12.945-17.917-25.172-25.537-32.991-16.3-16.71-53.719-23.437-85.742-5.167a82.44,82.44,0,0,0-17.241,13.1A158.223,158.223,0,0,0,269.449,315.469Z" transform="translate(-267.934 -275.461)" fill="#263238"/>
            </g>
            <g id="Group_12988" data-name="Group 12988" transform="translate(20.33)">
              <path id="Path_13755" data-name="Path 13755" d="M345.191,90.671c6.572,10.633,2.971,23.282-3.873,27.184s-18.88,11.651-20.655,16.435-13.009,16.876-27.146,9.913S280.955,112.89,287.2,97.974C295.441,78.3,327.127,61.442,345.191,90.671Z" transform="translate(-280.702 -74.936)" fill="#ffc727" opacity="0.4"/>
              <path id="Path_13756" data-name="Path 13756" d="M301.156,147.672a19.889,19.889,0,0,1-10.131-2.849c-14.407-8.448-10.354-33.277-3.076-47.4,6.119-11.874,20.426-20.85,33.28-20.879h.068c7.867,0,18.841,3.134,26.595,18.007h0a23.238,23.238,0,0,1,1.533,18.076c-1.526,4.523-4.384,8.048-7.84,9.67-9.1,4.275-19.47,10.221-21.265,14.091-1.358,2.932-6.511,8.252-13.253,10.36A19.737,19.737,0,0,1,301.156,147.672Zm20.14-69.61h-.064C308.9,78.09,295.175,86.713,289.3,98.12c-7.29,14.145-10.478,37.791,2.5,45.4a17.767,17.767,0,0,0,14.824,1.788c6.305-1.971,11.086-6.866,12.331-9.552,2.4-5.188,16.183-12.095,21.994-14.825,3.084-1.447,5.652-4.649,7.049-8.783a21.723,21.723,0,0,0-1.443-16.891h0C339.147,81.055,328.743,78.062,321.3,78.062Z" transform="translate(-281.351 -74.106)" fill="#263238"/>
            </g>
            <g id="Group_12989" data-name="Group 12989" transform="translate(144.825 88.075)">
              <path id="Path_13757" data-name="Path 13757" d="M400.969,134.049c-28.414,5.287-41.085,27.92-31.99,40.068s40.755,11.937,46.6,29.451,27.66,43.578,50.407,25.979S461.773,122.736,400.969,134.049Z" transform="translate(-362.191 -133.061)" fill="#dbdbdb"/>
              <path id="Path_13758" data-name="Path 13758" d="M442.392,242.3a23.54,23.54,0,0,1-9.52-2.056c-12.609-5.522-21.918-21.49-24.6-34.407-2.059-9.922-12.909-15.368-23.4-20.635-8.2-4.114-15.939-8-19.332-13.862-2.879-4.969-2.69-11.269.518-17.286,4.666-8.748,16.72-18.565,36.564-19.88l.05.756-.05-.756c41.756-2.758,57.265,36.217,61.028,48.231,7.582,24.216,4.4,48.66-7.238,55.65A27.151,27.151,0,0,1,442.392,242.3ZM402.725,135.681c-19.224,1.273-30.854,10.692-35.327,19.082-3,5.625-3.193,11.242-.546,15.813,3.167,5.469,10.711,9.257,18.7,13.266,10.814,5.428,22,11.042,24.2,21.682,2.6,12.537,11.584,28.011,23.722,33.327,7.157,3.135,14.61,2.428,22.153-2.1,11.067-6.644,13.956-30.319,6.573-53.9-3.679-11.746-18.809-49.869-59.481-47.17Z" transform="translate(-363.511 -132.562)" fill="#263238"/>
            </g>
          </g>
          <g id="Group_12994" data-name="Group 12994" transform="translate(17.841 8.417)">
            <g id="u5Zjqx" transform="translate(31.286)">
              <g id="Group_12991" data-name="Group 12991">
                <path id="Path_13759" data-name="Path 13759" d="M309.686,63.178l-.417.414c-.079.079-.158.158-.236.238a5.665,5.665,0,0,0-8.029,0c-.074-.077-.149-.156-.226-.233-.136-.139-.273-.276-.411-.414l-.012-.008v-.011l.03-.024c.176-.156.346-.317.527-.467a6.23,6.23,0,0,1,1.217-.776,6.149,6.149,0,0,1,1.615-.542c.267-.05.536-.074.806-.108.092-.011.688-.014.706-.012.183.014.368.021.55.042a6.232,6.232,0,0,1,1.482.353,6.547,6.547,0,0,1,1.958,1.138c.15.129.292.264.439.4Z" transform="translate(-300.355 -61.238)" fill="#c7c7c7"/>
                <path id="Path_13760" data-name="Path 13760" d="M301.879,64.507c-.221-.218-.436-.432-.659-.653A4.647,4.647,0,0,1,303.9,62.51a4.694,4.694,0,0,1,4.028,1.335l-.661.659a3.81,3.81,0,0,0-5.387,0Z" transform="translate(-299.909 -60.608)" fill="#c7c7c7"/>
                <path id="Path_13761" data-name="Path 13761" d="M306.159,64.533c-.217.217-.435.433-.655.655a1.946,1.946,0,0,0-2.761,0c-.218-.22-.436-.436-.653-.653A2.86,2.86,0,0,1,306.159,64.533Z" transform="translate(-299.46 -59.976)" fill="#c7c7c7"/>
              </g>
              <path id="Path_13762" data-name="Path 13762" d="M304.226,65.27a.592.592,0,1,1-.592-.591A.592.592,0,0,1,304.226,65.27Z" transform="translate(-298.97 -59.465)" fill="#c7c7c7"/>
            </g>
            <g id="Group_12992" data-name="Group 12992" transform="translate(0 1.484)">
              <path id="Path_13763" data-name="Path 13763" d="M279.708,63.932a1.715,1.715,0,1,1,1.715,1.715A1.716,1.716,0,0,1,279.708,63.932Z" transform="translate(-279.708 -62.217)" fill="#c7c7c7"/>
              <path id="Path_13764" data-name="Path 13764" d="M283.274,63.932a1.715,1.715,0,1,1,1.715,1.715A1.715,1.715,0,0,1,283.274,63.932Z" transform="translate(-277.871 -62.217)" fill="#c7c7c7"/>
              <path id="Path_13765" data-name="Path 13765" d="M286.839,63.932a1.715,1.715,0,1,1,1.717,1.715A1.716,1.716,0,0,1,286.839,63.932Z" transform="translate(-276.034 -62.217)" fill="#c7c7c7"/>
              <path id="Path_13766" data-name="Path 13766" d="M290.4,63.932a1.715,1.715,0,1,1,1.715,1.715A1.716,1.716,0,0,1,290.4,63.932Z" transform="translate(-274.196 -62.217)" fill="#c7c7c7"/>
              <path id="Path_13767" data-name="Path 13767" d="M293.971,63.932a1.715,1.715,0,1,1,1.715,1.715A1.716,1.716,0,0,1,293.971,63.932Z" transform="translate(-272.359 -62.217)" fill="#c7c7c7"/>
            </g>
            <g id="Group_12993" data-name="Group 12993" transform="translate(208.749 0.641)">
              <path id="Path_13768" data-name="Path 13768" d="M431.1,67.8H417.471V61.661H431.1Zm-13.254-.379h12.875V62.04H417.85Z" transform="translate(-417.471 -61.661)" fill="#c7c7c7"/>
              <rect id="Rectangle_1563" data-name="Rectangle 1563" width="9.002" height="4.272" transform="translate(0.992 0.932)" fill="#c7c7c7"/>
              <rect id="Rectangle_1564" data-name="Rectangle 1564" width="1.242" height="3.46" transform="translate(13.807 1.337)" fill="#c7c7c7"/>
            </g>
          </g>
          <g id="Group_13016" data-name="Group 13016" transform="translate(29.858 61.303)">
            <g id="Group_12996" data-name="Group 12996" transform="translate(75.719 391.798)">
              <g id="Group_12995" data-name="Group 12995">
                <path id="Path_13769" data-name="Path 13769" d="M345.284,359.842A3.837,3.837,0,1,1,341.447,356,3.837,3.837,0,0,1,345.284,359.842Z" transform="translate(-337.609 -354.037)" fill="#dbdbdb"/>
                <path id="Path_13770" data-name="Path 13770" d="M362.036,360.511a5.805,5.805,0,1,1-5.8-5.805A5.8,5.8,0,0,1,362.036,360.511Z" transform="translate(-331.005 -354.706)" fill="#f06e38"/>
                <path id="Path_13771" data-name="Path 13771" d="M373.515,359.842A3.837,3.837,0,1,1,369.677,356,3.838,3.838,0,0,1,373.515,359.842Z" transform="translate(-323.062 -354.037)" fill="#dbdbdb"/>
              </g>
            </g>
            <g id="Group_13015" data-name="Group 13015">
              <g id="Group_12998" data-name="Group 12998" transform="translate(1.105 172.964)">
                <path id="Path_13777" data-name="Path 13777" d="M288.368,217.138V210.87a.575.575,0,0,1,.583-.583h3.473a.589.589,0,0,1,.583.583.6.6,0,0,1-.583.6h-2.879v1.943h2.474a.59.59,0,0,1,0,1.18h-2.474v1.955h2.879a.589.589,0,0,1,0,1.177h-3.441c-.021,0-.021-.011-.021-.011l-.011.011A.582.582,0,0,1,288.368,217.138Z" transform="translate(-288.368 -210.287)" fill="#263238"/>
                <path id="Path_13778" data-name="Path 13778" d="M296.884,213.888v2.549a.566.566,0,0,1-.562.562.584.584,0,0,1-.574-.562v-2.549a1.084,1.084,0,0,0-2.167.032v2.517c0,.021-.011.053-.011.074v.032c-.011.021-.011.042-.032.064v.053a.619.619,0,0,1-.53.339c-.042,0-.074-.011-.106-.011a.576.576,0,0,1-.458-.552v-4.175a.562.562,0,0,1,.564-.573.538.538,0,0,1,.509.318,2.242,2.242,0,0,1,1.136-.318,2.2,2.2,0,0,1,1.668.733,2.184,2.184,0,0,1,1.667-.733,2.218,2.218,0,0,1,2.209,2.23v2.517a.566.566,0,0,1-.562.562.575.575,0,0,1-.574-.562v-2.517a1.087,1.087,0,0,0-1.073-1.094A1.1,1.1,0,0,0,296.884,213.888Z" transform="translate(-286.268 -209.565)" fill="#263238"/>
                <path id="Path_13779" data-name="Path 13779" d="M303.79,214.354v2.082a.566.566,0,0,1-.562.562.578.578,0,0,1-.553-.456,2.413,2.413,0,0,1-1.412.456,2.471,2.471,0,0,1-1.806-.774,2.722,2.722,0,0,1-.721-1.87,2.68,2.68,0,0,1,.721-1.868,2.413,2.413,0,0,1,3.218-.33.577.577,0,0,1,.553-.467.568.568,0,0,1,.562.573Zm-1.126,0a1.566,1.566,0,0,0-.414-1.094,1.314,1.314,0,0,0-.988-.435,1.282,1.282,0,0,0-.988.435,1.56,1.56,0,0,0-.4,1.094,1.6,1.6,0,0,0,.4,1.094,1.339,1.339,0,0,0,.988.414,1.374,1.374,0,0,0,.988-.414A1.6,1.6,0,0,0,302.664,214.354Z" transform="translate(-283.026 -209.565)" fill="#263238"/>
                <path id="Path_13780" data-name="Path 13780" d="M304.6,211.084a.572.572,0,0,1-.573.583.581.581,0,0,1-.574-.583v-.223a.572.572,0,0,1,.574-.574.563.563,0,0,1,.573.574Zm0,1.921v4.143a.563.563,0,0,1-.573.573.572.572,0,0,1-.574-.573v-4.143a.568.568,0,0,1,.574-.583A.559.559,0,0,1,304.6,213.005Z" transform="translate(-280.597 -210.287)" fill="#263238"/>
                <path id="Path_13781" data-name="Path 13781" d="M305.9,210.287a.592.592,0,0,1,.6.583v6.267a.59.59,0,0,1-1.18,0V210.87A.59.59,0,0,1,305.9,210.287Z" transform="translate(-279.637 -210.287)" fill="#263238"/>
              </g>
              <g id="Group_12999" data-name="Group 12999" transform="translate(1.105 215.943)">
                <path id="Path_13782" data-name="Path 13782" d="M290.852,243.2h-1.306V245.5a.589.589,0,0,1-1.177,0v-6.267a.581.581,0,0,1,.583-.583h1.9a2.272,2.272,0,1,1,0,4.544Zm-1.306-1.179h1.306a1.093,1.093,0,1,0,0-2.187h-1.306Z" transform="translate(-288.368 -238.651)" fill="#263238"/>
                <path id="Path_13783" data-name="Path 13783" d="M297.058,242.719V244.8a.566.566,0,0,1-.562.562.579.579,0,0,1-.553-.456,2.41,2.41,0,0,1-1.412.456,2.465,2.465,0,0,1-1.8-.774,2.717,2.717,0,0,1-.723-1.87,2.676,2.676,0,0,1,.723-1.87,2.408,2.408,0,0,1,3.217-.329.579.579,0,0,1,.553-.468.569.569,0,0,1,.562.574Zm-1.126,0a1.564,1.564,0,0,0-.414-1.094,1.312,1.312,0,0,0-.988-.435,1.282,1.282,0,0,0-.988.435,1.557,1.557,0,0,0-.4,1.094,1.6,1.6,0,0,0,.4,1.094,1.339,1.339,0,0,0,.988.414,1.372,1.372,0,0,0,.988-.414A1.6,1.6,0,0,0,295.932,242.719Z" transform="translate(-286.495 -237.929)" fill="#263238"/>
                <path id="Path_13784" data-name="Path 13784" d="M296.585,243.845a.552.552,0,0,1,.8-.085,1.951,1.951,0,0,0,1.168.467,1.417,1.417,0,0,0,.723-.2.434.434,0,0,0,.191-.32.156.156,0,0,0-.032-.1c-.011-.032-.053-.074-.138-.127a2.464,2.464,0,0,0-.85-.3h-.011a4.07,4.07,0,0,1-.923-.276,1.76,1.76,0,0,1-.733-.617,1.286,1.286,0,0,1-.18-.668,1.492,1.492,0,0,1,.626-1.168,2.289,2.289,0,0,1,1.308-.394,2.737,2.737,0,0,1,1.593.585.587.587,0,0,1,.17.785.562.562,0,0,1-.786.15,1.817,1.817,0,0,0-.976-.392,1.071,1.071,0,0,0-.638.191.323.323,0,0,0-.17.244.114.114,0,0,0,.021.085.286.286,0,0,0,.117.106,2.163,2.163,0,0,0,.774.255l.011.011h.011a3.932,3.932,0,0,1,.988.308,1.656,1.656,0,0,1,.755.627,1.373,1.373,0,0,1,.2.7,1.536,1.536,0,0,1-.668,1.233,2.423,2.423,0,0,1-1.382.424,3.077,3.077,0,0,1-1.89-.733A.566.566,0,0,1,296.585,243.845Z" transform="translate(-284.198 -237.929)" fill="#263238"/>
                <path id="Path_13785" data-name="Path 13785" d="M299.961,243.845a.553.553,0,0,1,.8-.085,1.946,1.946,0,0,0,1.167.467,1.417,1.417,0,0,0,.723-.2.429.429,0,0,0,.191-.32.157.157,0,0,0-.032-.1c-.009-.032-.053-.074-.138-.127a2.452,2.452,0,0,0-.85-.3h-.009a4.059,4.059,0,0,1-.924-.276,1.759,1.759,0,0,1-.733-.617,1.285,1.285,0,0,1-.18-.668,1.492,1.492,0,0,1,.626-1.168,2.289,2.289,0,0,1,1.308-.394,2.736,2.736,0,0,1,1.592.585.587.587,0,0,1,.17.785.562.562,0,0,1-.786.15,1.817,1.817,0,0,0-.976-.392,1.071,1.071,0,0,0-.638.191.323.323,0,0,0-.17.244.114.114,0,0,0,.021.085.286.286,0,0,0,.117.106,2.162,2.162,0,0,0,.774.255l.011.011h.012a3.94,3.94,0,0,1,.986.308,1.656,1.656,0,0,1,.755.627,1.373,1.373,0,0,1,.2.7,1.536,1.536,0,0,1-.668,1.233,2.42,2.42,0,0,1-1.382.424,3.077,3.077,0,0,1-1.889-.733A.566.566,0,0,1,299.961,243.845Z" transform="translate(-282.458 -237.929)" fill="#263238"/>
                <path id="Path_13786" data-name="Path 13786" d="M310.357,240.878,308.6,245a.479.479,0,0,1-.042.085.009.009,0,0,1-.009.011.343.343,0,0,1-.055.064.03.03,0,0,1-.021.011.28.28,0,0,1-.064.053c0,.011-.011.011-.011.021a.279.279,0,0,1-.1.053.01.01,0,0,0-.011.011.329.329,0,0,0-.085.021h-.021a.326.326,0,0,1-.106.011.293.293,0,0,1-.1-.011h-.021a.154.154,0,0,0-.074-.021l-.011-.011h-.011a.268.268,0,0,1-.1-.064v-.011c-.032-.011-.041-.032-.064-.053,0,0-.02,0-.02-.011a.251.251,0,0,1-.055-.064.009.009,0,0,1-.009-.011.667.667,0,0,1-.044-.085l-.774-1.836L306.055,245a.977.977,0,0,1-.053.085v.011l-.064.064a.01.01,0,0,1-.011.011l-.064.064a.37.37,0,0,1-.1.064h-.021a.01.01,0,0,0-.011.011.114.114,0,0,0-.064.021h-.021a.406.406,0,0,1-.107.011.321.321,0,0,1-.1-.011h-.032a.158.158,0,0,0-.064-.021c-.012-.011-.012-.011-.023-.011a.2.2,0,0,1-.1-.064c-.011,0-.011,0-.011-.011a.372.372,0,0,0-.062-.053l-.023-.011c-.009-.021-.032-.042-.041-.064-.012,0-.012,0-.012-.011a.6.6,0,0,0-.053-.085l-1.741-4.12a.55.55,0,0,1,.308-.733.528.528,0,0,1,.7.318l1.252,2.858.744-1.774a.567.567,0,0,1,.521-.341.544.544,0,0,1,.52.341l.755,1.774,1.253-2.858a.531.531,0,0,1,.712-.318A.558.558,0,0,1,310.357,240.878Z" transform="translate(-280.707 -237.904)" fill="#263238"/>
                <path id="Path_13787" data-name="Path 13787" d="M309.857,244.589a2.652,2.652,0,0,1-.733-1.87,2.738,2.738,0,0,1,.733-1.859,2.479,2.479,0,0,1,1.826-.808,2.348,2.348,0,0,1,1.773.808,2.652,2.652,0,0,1,.744,1.859,2.572,2.572,0,0,1-.744,1.87,2.346,2.346,0,0,1-1.773.806A2.478,2.478,0,0,1,309.857,244.589Zm.424-1.87a1.719,1.719,0,0,0,.382,1.126,1.442,1.442,0,0,0,1.02.392,1.392,1.392,0,0,0,.977-.392,1.634,1.634,0,0,0,.414-1.126,1.6,1.6,0,0,0-.414-1.1,1.5,1.5,0,0,0-.977-.4,1.549,1.549,0,0,0-1.02.4A1.679,1.679,0,0,0,310.282,242.719Z" transform="translate(-277.673 -237.929)" fill="#263238"/>
                <path id="Path_13788" data-name="Path 13788" d="M316.8,240.612a.568.568,0,0,1-.564.564,1.021,1.021,0,0,0-.638.2,1.6,1.6,0,0,0-.488.509,3.277,3.277,0,0,0-.435.893V244.8a.578.578,0,0,1-.585.562.566.566,0,0,1-.562-.562v-4.185a.558.558,0,0,1,.562-.553.57.57,0,0,1,.585.553v.074a1.393,1.393,0,0,1,.223-.212,2.328,2.328,0,0,1,1.338-.415A.553.553,0,0,1,316.8,240.612Z" transform="translate(-275.406 -237.926)" fill="#263238"/>
                <path id="Path_13789" data-name="Path 13789" d="M321.354,245.511a.578.578,0,0,1-.573.574.572.572,0,0,1-.564-.456,2.589,2.589,0,0,1-1.444.456,2.657,2.657,0,0,1,0-5.311,2.513,2.513,0,0,1,1.423.447v-2a.579.579,0,0,1,1.158,0v6.287Zm-2.581-3.578a1.374,1.374,0,0,0-1,.435,1.542,1.542,0,0,0,0,2.124,1.374,1.374,0,0,0,1,.435,1.356,1.356,0,0,0,1-.435,1.538,1.538,0,0,0,0-2.124A1.356,1.356,0,0,0,318.773,241.933Z" transform="translate(-274.031 -238.651)" fill="#263238"/>
              </g>
              <path id="Path_13790" data-name="Path 13790" d="M287.639,274.529l25.132-.218,25.132-.079,50.264-.15,50.264.149,25.132.079,25.132.22-25.132.22-25.132.079-50.264.149-50.264-.15-25.132-.079Z" transform="translate(-287.638 -4.451)" fill="#455a64"/>
              <path id="Path_13791" data-name="Path 13791" d="M287.639,203.835l25.132-.218,25.132-.079,50.264-.15,50.264.149,25.132.079,25.132.22-25.132.219-25.132.079-50.264.149-50.264-.15-25.132-.079Z" transform="translate(-287.638 -40.878)" fill="#ebebeb"/>
              <g id="Group_13001" data-name="Group 13001" transform="translate(44.23)">
                <path id="Path_13792" data-name="Path 13792" d="M402.711,200.311a56.27,56.27,0,0,1-59.191-.024,56.278,56.278,0,1,1,59.191.024Z" transform="translate(-316.828 -96.14)" fill="#f06e38"/>
                <g id="Group_13000" data-name="Group 13000" transform="translate(26.691 31.384)">
                  <circle id="Ellipse_3209" data-name="Ellipse 3209" cx="17.127" cy="17.127" r="17.127" transform="translate(11.116 2.82) rotate(-4.722)" fill="#fff"/>
                  <path id="Path_13793" data-name="Path 13793" d="M393.634,170.288v7.066a56.269,56.269,0,0,1-59.191-.024v-7.041a29.6,29.6,0,0,1,59.191,0Z" transform="translate(-334.443 -104.567)" fill="#fff"/>
                </g>
              </g>
              <g id="Group_13003" data-name="Group 13003" transform="translate(0.001 340.759)">
                <path id="Path_13794" data-name="Path 13794" d="M287.639,322.963q10.292-.248,20.585-.344l20.587-.1,20.586.1q10.292.091,20.587.345-10.294.248-20.587.345l-20.586.1-20.587-.1Q297.932,323.216,287.639,322.963Z" transform="translate(-287.639 -320.255)" fill="#455a64"/>
                <path id="Path_13795" data-name="Path 13795" d="M365.982,322.963q10.294-.248,20.587-.344l20.586-.1,20.587.1q10.292.091,20.585.345-10.292.248-20.585.345l-20.587.1-20.586-.1Q376.274,323.216,365.982,322.963Z" transform="translate(-247.271 -320.255)" fill="#455a64"/>
                <g id="Group_13002" data-name="Group 13002" transform="translate(94.724)">
                  <path id="Path_13796" data-name="Path 13796" d="M350.9,325.64a2.705,2.705,0,0,1-.746-1.9,2.8,2.8,0,0,1,.746-1.893,2.527,2.527,0,0,1,1.861-.821,2.394,2.394,0,0,1,1.806.821,2.7,2.7,0,0,1,.756,1.893,2.618,2.618,0,0,1-.756,1.9,2.394,2.394,0,0,1-1.806.821A2.527,2.527,0,0,1,350.9,325.64Zm.433-1.9a1.748,1.748,0,0,0,.389,1.146,1.462,1.462,0,0,0,1.038.4,1.414,1.414,0,0,0,.994-.4,1.657,1.657,0,0,0,.423-1.146,1.626,1.626,0,0,0-.423-1.126,1.523,1.523,0,0,0-.994-.411,1.568,1.568,0,0,0-1.038.411A1.714,1.714,0,0,0,351.331,323.737Z" transform="translate(-350.152 -321.023)" fill="#455a64"/>
                  <path id="Path_13797" data-name="Path 13797" d="M357.967,321.591a.576.576,0,0,1-.573.574,1.046,1.046,0,0,0-.65.2,1.625,1.625,0,0,0-.5.52,3.271,3.271,0,0,0-.444.908v2.056a.59.59,0,0,1-.6.573.577.577,0,0,1-.573-.573v-4.262a.566.566,0,0,1,.573-.561.579.579,0,0,1,.6.561v.077a1.272,1.272,0,0,1,.227-.217,2.369,2.369,0,0,1,1.362-.421A.559.559,0,0,1,357.967,321.591Z" transform="translate(-347.842 -321.02)" fill="#455a64"/>
                </g>
              </g>
              <g id="Group_13005" data-name="Group 13005" transform="translate(91.831 357.518)">
                <g id="Group_13004" data-name="Group 13004">
                  <rect id="Rectangle_1565" data-name="Rectangle 1565" width="15.913" height="15.913" fill="#455a64"/>
                </g>
                <path id="Path_13798" data-name="Path 13798" d="M352.652,341.007h-2.121V338.57h2.08c.011-.185.021-.329.024-.473.015-.641-.012-1.283.049-1.918a2.679,2.679,0,0,1,2.371-2.578,19.868,19.868,0,0,1,2.656-.021V335.8c-.321,0-.641-.008-.961,0a4.431,4.431,0,0,0-.853.058.8.8,0,0,0-.677.77c-.024.623-.006,1.246-.006,1.921h2.42c-.1.8-.189,1.536-.3,2.273-.011.071-.2.161-.3.164-.583.017-1.167.008-1.8.008v6.252h-2.576Z" transform="translate(-347.063 -331.331)" fill="#fff"/>
              </g>
              <g id="Group_13008" data-name="Group 13008" transform="translate(47.982 290.829)">
                <g id="Group_13006" data-name="Group 13006">
                  <rect id="Rectangle_1566" data-name="Rectangle 1566" width="103.451" height="32.896" fill="#f06e38"/>
                </g>
                <g id="Group_13007" data-name="Group 13007" transform="translate(28.887 11.011)">
                  <path id="Path_13799" data-name="Path 13799" d="M338.368,305.278v-8.911a.827.827,0,0,1,.83-.829.841.841,0,0,1,.847.829v8.066h4.091a.838.838,0,0,1,0,1.676H339.2A.828.828,0,0,1,338.368,305.278Z" transform="translate(-338.368 -295.235)" fill="#fff"/>
                  <path id="Path_13800" data-name="Path 13800" d="M352.08,296.953a5.552,5.552,0,0,1,0,7.643,4.951,4.951,0,0,1-3.611,1.615,5.1,5.1,0,0,1-3.7-1.615,5.63,5.63,0,0,1,0-7.643,5.038,5.038,0,0,1,3.7-1.615A4.895,4.895,0,0,1,352.08,296.953Zm-.2,3.822a3.919,3.919,0,0,0-1.026-2.643,3.258,3.258,0,0,0-4.834,0A3.842,3.842,0,0,0,345,300.775a3.774,3.774,0,0,0,1.027,2.628,3.225,3.225,0,0,0,4.834,0A3.849,3.849,0,0,0,351.883,300.775Z" transform="translate(-335.84 -295.338)" fill="#fff"/>
                  <path id="Path_13801" data-name="Path 13801" d="M351.751,300.79a5.506,5.506,0,0,1,5.573-5.452,5.581,5.581,0,0,1,3.444,1.179.87.87,0,0,1,.167,1.223.881.881,0,0,1-1.224.135,3.922,3.922,0,0,0-2.387-.815,3.743,3.743,0,0,0-2.718,1.1,3.577,3.577,0,0,0,0,5.225,3.738,3.738,0,0,0,2.718,1.1,4.172,4.172,0,0,0,2.07-.574v-2.07h-2.159a.87.87,0,0,1-.862-.861.848.848,0,0,1,.862-.846h3a.851.851,0,0,1,.876.846v3.338a1.412,1.412,0,0,1-.044.256c-.017.03-.017.044-.032.076v.015a.7.7,0,0,1-.286.361,5.561,5.561,0,0,1-3.429,1.179A5.49,5.49,0,0,1,351.751,300.79Z" transform="translate(-331.472 -295.338)" fill="#fff"/>
                  <path id="Path_13802" data-name="Path 13802" d="M360.249,296.367a.816.816,0,0,1,.829-.829.84.84,0,0,1,.847.829v8.911a.84.84,0,0,1-.847.83.816.816,0,0,1-.829-.83Z" transform="translate(-327.093 -295.235)" fill="#fff"/>
                  <path id="Path_13803" data-name="Path 13803" d="M364.876,305.242a.823.823,0,1,1-1.646,0v-8.789a.812.812,0,0,1,.332-.7.833.833,0,0,1,1.147.18l4.879,6.752v-6.222a.822.822,0,0,1,.815-.817.836.836,0,0,1,.83.817v8.773a.839.839,0,0,1-.83.83.824.824,0,0,1-.62-.3.409.409,0,0,1-.076-.091l-4.832-6.705Z" transform="translate(-325.558 -295.199)" fill="#fff"/>
                </g>
              </g>
              <g id="Group_13011" data-name="Group 13011" transform="translate(0 187.958)">
                <g id="Group_13009" data-name="Group 13009">
                  <rect id="Rectangle_1567" data-name="Rectangle 1567" width="201.057" height="17.81" fill="#ebebeb"/>
                </g>
                <g id="Group_13010" data-name="Group 13010" transform="translate(7.683 4.393)">
                  <path id="Path_13804" data-name="Path 13804" d="M292.709,225.174a.309.309,0,0,1,.618,0v3.437a1.943,1.943,0,1,0,3.887,0v-3.437a.312.312,0,0,1,.309-.309.309.309,0,0,1,.321.309v3.437a2.568,2.568,0,1,1-5.135,0Z" transform="translate(-292.709 -222.162)" fill="#a6a6a6"/>
                  <path id="Path_13805" data-name="Path 13805" d="M297.738,229.868a.306.306,0,0,1,.438-.038,3.382,3.382,0,0,0,1.932.732,1.908,1.908,0,0,0,1.2-.385.954.954,0,0,0,.477-.773,1,1,0,0,0-.452-.773,3.132,3.132,0,0,0-1.338-.464l-.026-.012a3.592,3.592,0,0,1-1.429-.489,1.318,1.318,0,0,1-.682-1.132,1.564,1.564,0,0,1,.682-1.236,2.712,2.712,0,0,1,1.544-.424,3.4,3.4,0,0,1,1.88.682.329.329,0,0,1,.089.438.308.308,0,0,1-.424.089,2.77,2.77,0,0,0-1.546-.63,1.893,1.893,0,0,0-1.2.361.946.946,0,0,0-.4.721.767.767,0,0,0,.359.63,3.179,3.179,0,0,0,1.288.438h.026a4.358,4.358,0,0,1,1.532.515,1.571,1.571,0,0,1,.708,1.286,1.6,1.6,0,0,1-.721,1.274,2.569,2.569,0,0,1-1.568.5,3.819,3.819,0,0,1-2.331-.9A.291.291,0,0,1,297.738,229.868Z" transform="translate(-290.153 -222.157)" fill="#a6a6a6"/>
                  <path id="Path_13806" data-name="Path 13806" d="M301.888,228.041a3.053,3.053,0,0,1,6.1-.232v.052a.292.292,0,0,1-.311.282h-5.173a2.479,2.479,0,0,0,2.446,2.42,2.37,2.37,0,0,0,2.034-1.144.3.3,0,0,1,.411-.1.328.328,0,0,1,.1.436,3.007,3.007,0,0,1-2.549,1.429A3.1,3.1,0,0,1,301.888,228.041Zm.656-.5h4.776a2.435,2.435,0,0,0-2.368-2.046A2.462,2.462,0,0,0,302.544,227.538Z" transform="translate(-287.979 -222.157)" fill="#a6a6a6"/>
                  <path id="Path_13807" data-name="Path 13807" d="M307.182,225.191a.309.309,0,0,1,.323-.309.3.3,0,0,1,.3.309v1.391a1.026,1.026,0,0,1,.091-.155,3.046,3.046,0,0,1,2.524-1.546.3.3,0,0,1,.308.309.312.312,0,0,1-.308.309,2.274,2.274,0,0,0-1.829,1.03,5.639,5.639,0,0,0-.759,1.467.186.186,0,0,0-.027.1v2.767a.3.3,0,0,1-.3.309.309.309,0,0,1-.323-.309Z" transform="translate(-285.251 -222.153)" fill="#a6a6a6"/>
                  <path id="Path_13808" data-name="Path 13808" d="M315.419,227.444a1.942,1.942,0,0,0-1.943-1.944,1.979,1.979,0,0,0-1.958,1.944v3.476a.281.281,0,0,1-.065.141.271.271,0,0,1-.23.115h-.077a.332.332,0,0,1-.206-.167.051.051,0,0,1-.012-.039c0-.012-.015-.026-.015-.026v-5.753a.306.306,0,0,1,.311-.309.3.3,0,0,1,.3.309v.6a2.559,2.559,0,0,1,4.519,1.649v3.423a.309.309,0,1,1-.618,0Z" transform="translate(-283.329 -222.153)" fill="#a6a6a6"/>
                  <path id="Path_13809" data-name="Path 13809" d="M321.647,225.183v5.688a.31.31,0,0,1-.62,0v-.939a2.939,2.939,0,0,1-2.367,1.249,3.158,3.158,0,0,1,0-6.307,2.93,2.93,0,0,1,2.367,1.235v-.926a.31.31,0,0,1,.62,0Zm-.62,2.844a2.373,2.373,0,1,0-2.367,2.535A2.463,2.463,0,0,0,321.027,228.027Z" transform="translate(-280.876 -222.157)" fill="#a6a6a6"/>
                  <path id="Path_13810" data-name="Path 13810" d="M330.41,227.444a1.982,1.982,0,0,0-1.958-1.956,1.962,1.962,0,0,0-1.944,1.956v3.476a.042.042,0,0,1-.012.024v.026a.323.323,0,0,1-.155.168.342.342,0,0,1-.155.038h-.065a.042.042,0,0,1-.024-.012c-.026,0-.053-.026-.077-.039s-.026-.012-.039-.026l-.038-.038c-.012-.014-.012-.026-.027-.026,0-.014,0-.014-.012-.026a.04.04,0,0,0-.012-.026.047.047,0,0,0-.014-.039v-3.5a1.943,1.943,0,1,0-3.887,0v3.437a.274.274,0,0,1-.142.244.14.14,0,0,1-.077.039c-.012.012-.024.012-.052.012h-.077a.338.338,0,0,1-.258-.232v-5.766a.3.3,0,0,1,.3-.3.3.3,0,0,1,.309.3v.6a2.52,2.52,0,0,1,1.944-.9,2.558,2.558,0,0,1,2.252,1.339,2.609,2.609,0,0,1,2.265-1.339,2.56,2.56,0,0,1,2.562,2.562v3.437a.3.3,0,0,1-.309.3.3.3,0,0,1-.3-.3Z" transform="translate(-277.933 -222.153)" fill="#a6a6a6"/>
                  <path id="Path_13811" data-name="Path 13811" d="M329.171,228.041a3.052,3.052,0,0,1,6.1-.232v.052a.291.291,0,0,1-.309.282h-5.175a2.482,2.482,0,0,0,2.447,2.42,2.367,2.367,0,0,0,2.032-1.144.3.3,0,0,1,.412-.1.328.328,0,0,1,.1.436,3.009,3.009,0,0,1-2.549,1.429A3.1,3.1,0,0,1,329.171,228.041Zm.655-.5H334.6a2.435,2.435,0,0,0-2.367-2.046A2.465,2.465,0,0,0,329.826,227.538Z" transform="translate(-273.921 -222.157)" fill="#a6a6a6"/>
                  <path id="Path_13812" data-name="Path 13812" d="M338.823,223.081a4.539,4.539,0,0,1,4.028,6.566,2.212,2.212,0,0,1-1.171.977.859.859,0,0,1-.256.027.88.88,0,0,1-.733-.349,1.106,1.106,0,0,1-.206-.618v-.436a2.192,2.192,0,0,1-1.661.771,2.423,2.423,0,0,1,0-4.84,2.346,2.346,0,0,1,2.279,2.406v2.061h.012a.6.6,0,0,0,.077.283.263.263,0,0,0,.232.089h.1a1.345,1.345,0,0,0,.747-.67,3.657,3.657,0,0,0,.424-1.764,3.881,3.881,0,1,0-3.875,3.888,3.5,3.5,0,0,0,.965-.1.272.272,0,0,1,.361.22.281.281,0,0,1-.218.373,4.511,4.511,0,1,1-1.108-8.883Zm0,6.269a1.712,1.712,0,0,0,1.649-1.764,1.733,1.733,0,0,0-1.649-1.776,1.714,1.714,0,0,0-1.635,1.776A1.693,1.693,0,0,0,338.823,229.35Z" transform="translate(-271.276 -223.081)" fill="#a6a6a6"/>
                  <path id="Path_13813" data-name="Path 13813" d="M352,227.444a1.95,1.95,0,1,0-3.9,0v3.476a.042.042,0,0,1-.012.024v.026a.335.335,0,0,1-.155.168.343.343,0,0,1-.156.038h-.064a.049.049,0,0,1-.026-.012c-.024,0-.052-.026-.077-.039s-.024-.012-.038-.026l-.038-.038c-.014-.014-.014-.026-.027-.026s0-.014-.012-.026a.038.038,0,0,0-.014-.026.051.051,0,0,0-.012-.039v-3.5a1.944,1.944,0,1,0-3.888,0v3.437a.276.276,0,0,1-.141.244.14.14,0,0,1-.077.039c-.012.012-.026.012-.051.012h-.077a.334.334,0,0,1-.258-.232v-5.766a.3.3,0,0,1,.3-.3.294.294,0,0,1,.308.3v.6a2.523,2.523,0,0,1,1.946-.9,2.554,2.554,0,0,1,2.25,1.339,2.611,2.611,0,0,1,2.267-1.339,2.561,2.561,0,0,1,2.562,2.562v3.437a.3.3,0,0,1-.311.3.3.3,0,0,1-.3-.3Z" transform="translate(-266.809 -222.153)" fill="#a6a6a6"/>
                  <path id="Path_13814" data-name="Path 13814" d="M356.577,225.183v5.688a.308.308,0,1,1-.615,0v-.939a2.946,2.946,0,0,1-2.37,1.249,3.158,3.158,0,0,1,0-6.307,2.937,2.937,0,0,1,2.37,1.235v-.926a.308.308,0,1,1,.615,0Zm-.615,2.844a2.375,2.375,0,1,0-2.37,2.535A2.465,2.465,0,0,0,355.962,228.027Z" transform="translate(-262.876 -222.157)" fill="#a6a6a6"/>
                  <path id="Path_13815" data-name="Path 13815" d="M356.326,223.823a.312.312,0,0,1,.308-.308.316.316,0,0,1,.323.308v.3a.316.316,0,1,1-.63,0Zm0,2.061a.3.3,0,0,1,.308-.309.309.309,0,0,1,.323.309v5.688a.316.316,0,0,1-.323.309.312.312,0,0,1-.308-.309Z" transform="translate(-259.929 -222.857)" fill="#a6a6a6"/>
                  <path id="Path_13816" data-name="Path 13816" d="M358.587,223.4a.313.313,0,0,1,.308-.309.317.317,0,0,1,.323.309v8.392a.316.316,0,0,1-.323.309.312.312,0,0,1-.308-.309Z" transform="translate(-258.764 -223.076)" fill="#a6a6a6"/>
                  <path id="Path_13817" data-name="Path 13817" d="M361.194,228.187a.643.643,0,1,1-.644.642A.636.636,0,0,1,361.194,228.187Z" transform="translate(-257.752 -220.45)" fill="#a6a6a6"/>
                  <path id="Path_13818" data-name="Path 13818" d="M362.131,228.015a3.176,3.176,0,0,1,3.243-3.141,3.242,3.242,0,0,1,2.008.7.289.289,0,0,1,.039.424.317.317,0,0,1-.424.051,2.571,2.571,0,1,0-1.623,4.517,2.651,2.651,0,0,0,1.623-.553.317.317,0,0,1,.424.051.306.306,0,0,1-.065.452,3.249,3.249,0,0,1-1.982.668A3.18,3.18,0,0,1,362.131,228.015Z" transform="translate(-256.938 -222.157)" fill="#a6a6a6"/>
                  <path id="Path_13819" data-name="Path 13819" d="M369.946,224.874a3.158,3.158,0,1,1-2.988,3.153A3.084,3.084,0,0,1,369.946,224.874Zm0,5.688a2.548,2.548,0,1,0-2.37-2.535A2.468,2.468,0,0,0,369.946,230.562Z" transform="translate(-254.45 -222.157)" fill="#a6a6a6"/>
                  <path id="Path_13820" data-name="Path 13820" d="M381.49,227.444a1.981,1.981,0,0,0-1.958-1.956,1.961,1.961,0,0,0-1.943,1.956v3.476a.041.041,0,0,1-.014.024v.026a.332.332,0,0,1-.153.168.348.348,0,0,1-.156.038H377.2a.043.043,0,0,1-.026-.012c-.026,0-.052-.026-.077-.039s-.026-.012-.039-.026l-.038-.038c-.012-.014-.012-.026-.026-.026s0-.014-.014-.026a.04.04,0,0,0-.012-.026.051.051,0,0,0-.012-.039v-3.5a1.944,1.944,0,1,0-3.888,0v3.437a.276.276,0,0,1-.141.244.151.151,0,0,1-.077.039c-.014.012-.026.012-.053.012h-.076a.335.335,0,0,1-.259-.232v-5.766a.3.3,0,0,1,.3-.3.294.294,0,0,1,.308.3v.6a2.522,2.522,0,0,1,1.944-.9,2.555,2.555,0,0,1,2.252,1.339,2.611,2.611,0,0,1,2.265-1.339,2.56,2.56,0,0,1,2.562,2.562v3.437a.3.3,0,0,1-.309.3.3.3,0,0,1-.3-.3Z" transform="translate(-251.613 -222.153)" fill="#a6a6a6"/>
                </g>
              </g>
              <g id="Group_13014" data-name="Group 13014" transform="translate(0 230.937)">
                <g id="Group_13012" data-name="Group 13012">
                  <rect id="Rectangle_1568" data-name="Rectangle 1568" width="201.057" height="17.81" fill="#ebebeb"/>
                </g>
                <g id="Group_13013" data-name="Group 13013" transform="translate(7.592 6.949)">
                  <path id="Path_13821" data-name="Path 13821" d="M294.284,255.358l-1.171.8a.343.343,0,0,1-.206.077.27.27,0,0,1-.258-.27.284.284,0,0,1,.18-.245l1.326-.63-1.326-.63a.265.265,0,0,1,.077-.515.317.317,0,0,1,.206.077l1.171.8-.1-1.4a.259.259,0,1,1,.515,0l-.1,1.4,1.171-.8a.343.343,0,0,1,.206-.077.268.268,0,0,1,.256.27.255.255,0,0,1-.179.245l-1.327.63,1.327.63a.255.255,0,0,1,.179.245.268.268,0,0,1-.256.27.343.343,0,0,1-.206-.077l-1.171-.8.1,1.4a.259.259,0,1,1-.515,0Z" transform="translate(-292.649 -253.132)" fill="#a6a6a6"/>
                  <path id="Path_13822" data-name="Path 13822" d="M297.938,255.358l-1.171.8a.343.343,0,0,1-.206.077.27.27,0,0,1-.258-.27.285.285,0,0,1,.18-.245l1.326-.63-1.326-.63a.265.265,0,0,1,.077-.515.317.317,0,0,1,.206.077l1.171.8-.1-1.4a.254.254,0,0,1,.256-.282.257.257,0,0,1,.258.282l-.1,1.4,1.171-.8a.343.343,0,0,1,.206-.077.268.268,0,0,1,.256.27.255.255,0,0,1-.179.245l-1.327.63,1.327.63a.255.255,0,0,1,.179.245.268.268,0,0,1-.256.27.343.343,0,0,1-.206-.077l-1.171-.8.1,1.4a.258.258,0,0,1-.258.283.255.255,0,0,1-.256-.283Z" transform="translate(-290.766 -253.132)" fill="#a6a6a6"/>
                  <path id="Path_13823" data-name="Path 13823" d="M301.593,255.358l-1.171.8a.343.343,0,0,1-.206.077.27.27,0,0,1-.258-.27.284.284,0,0,1,.182-.245l1.324-.63-1.324-.63a.264.264,0,0,1,.076-.515.317.317,0,0,1,.206.077l1.171.8-.1-1.4a.258.258,0,1,1,.514,0l-.1,1.4,1.171-.8a.335.335,0,0,1,.2-.077.269.269,0,0,1,.258.27.256.256,0,0,1-.18.245l-1.326.63,1.326.63a.256.256,0,0,1,.18.245.269.269,0,0,1-.258.27.335.335,0,0,1-.2-.077l-1.171-.8.1,1.4a.258.258,0,1,1-.514,0Z" transform="translate(-288.883 -253.132)" fill="#a6a6a6"/>
                  <path id="Path_13824" data-name="Path 13824" d="M305.248,255.358l-1.171.8a.339.339,0,0,1-.2.077.27.27,0,0,1-.259-.27.286.286,0,0,1,.182-.245l1.324-.63-1.324-.63a.264.264,0,0,1,.077-.515.311.311,0,0,1,.2.077l1.171.8-.1-1.4a.258.258,0,1,1,.514,0l-.1,1.4,1.171-.8a.342.342,0,0,1,.206-.077.269.269,0,0,1,.256.27.255.255,0,0,1-.179.245l-1.327.63,1.327.63a.255.255,0,0,1,.179.245.269.269,0,0,1-.256.27.342.342,0,0,1-.206-.077l-1.171-.8.1,1.4a.258.258,0,1,1-.514,0Z" transform="translate(-287 -253.132)" fill="#a6a6a6"/>
                  <path id="Path_13825" data-name="Path 13825" d="M308.9,255.358l-1.171.8a.342.342,0,0,1-.206.077.269.269,0,0,1-.258-.27.284.284,0,0,1,.18-.245l1.324-.63-1.324-.63a.275.275,0,0,1-.18-.245.277.277,0,0,1,.258-.27.317.317,0,0,1,.206.077l1.171.8-.1-1.4a.258.258,0,1,1,.514,0l-.1,1.4,1.171-.8a.343.343,0,0,1,.206-.077.269.269,0,0,1,.256.27.255.255,0,0,1-.179.245l-1.327.63,1.327.63a.255.255,0,0,1,.179.245.269.269,0,0,1-.256.27.343.343,0,0,1-.206-.077l-1.171-.8.1,1.4a.258.258,0,1,1-.514,0Z" transform="translate(-285.116 -253.132)" fill="#a6a6a6"/>
                  <path id="Path_13826" data-name="Path 13826" d="M312.557,255.358l-1.171.8a.343.343,0,0,1-.206.077.269.269,0,0,1-.258-.27.284.284,0,0,1,.18-.245l1.326-.63-1.326-.63a.265.265,0,0,1,.077-.515.317.317,0,0,1,.206.077l1.171.8-.1-1.4a.259.259,0,1,1,.515,0l-.1,1.4,1.171-.8a.343.343,0,0,1,.206-.077.269.269,0,0,1,.256.27.255.255,0,0,1-.179.245l-1.327.63,1.327.63a.255.255,0,0,1,.179.245.269.269,0,0,1-.256.27.343.343,0,0,1-.206-.077l-1.171-.8.1,1.4a.259.259,0,1,1-.515,0Z" transform="translate(-283.233 -253.132)" fill="#a6a6a6"/>
                  <path id="Path_13827" data-name="Path 13827" d="M316.212,255.358l-1.171.8a.342.342,0,0,1-.206.077.27.27,0,0,1-.258-.27.284.284,0,0,1,.18-.245l1.326-.63-1.326-.63a.265.265,0,0,1,.077-.515.317.317,0,0,1,.206.077l1.171.8-.1-1.4a.259.259,0,1,1,.515,0l-.1,1.4,1.171-.8a.339.339,0,0,1,.206-.077.268.268,0,0,1,.256.27.255.255,0,0,1-.179.245l-1.327.63,1.327.63a.255.255,0,0,1,.179.245.268.268,0,0,1-.256.27.339.339,0,0,1-.206-.077l-1.171-.8.1,1.4a.259.259,0,1,1-.515,0Z" transform="translate(-281.35 -253.132)" fill="#a6a6a6"/>
                  <path id="Path_13828" data-name="Path 13828" d="M319.867,255.358l-1.171.8a.343.343,0,0,1-.206.077.27.27,0,0,1-.258-.27.284.284,0,0,1,.18-.245l1.326-.63-1.326-.63a.264.264,0,0,1,.077-.515.317.317,0,0,1,.206.077l1.171.8-.1-1.4a.258.258,0,1,1,.514,0l-.1,1.4,1.17-.8a.346.346,0,0,1,.206-.077.268.268,0,0,1,.256.27.255.255,0,0,1-.179.245l-1.326.63,1.326.63a.255.255,0,0,1,.179.245.268.268,0,0,1-.256.27.346.346,0,0,1-.206-.077l-1.17-.8.1,1.4a.258.258,0,1,1-.514,0Z" transform="translate(-279.467 -253.132)" fill="#a6a6a6"/>
                </g>
              </g>
            </g>
          </g>
        </g>
      </g>
    </g>
  </g>
  <g id="Table" transform="translate(0.76 548.825)">
    <path id="Path_13829" data-name="Path 13829" d="M36.711,405.109l80.8-.368,80.8-.134,161.6-.254,161.6.252,80.8.133,80.8.371-80.8.371-80.8.133-161.6.252-161.6-.254-80.8-.134Z" transform="translate(-36.711 -404.353)" fill="#263238"/>
  </g>
  <g id="Plant" transform="translate(549.71 412.912)">
    <g id="Group_13026" data-name="Group 13026">
      <g id="Group_13021" data-name="Group 13021" transform="translate(0 31.226)">
        <path id="Path_13830" data-name="Path 13830" d="M415.538,346.644c21.723,21.268,25.37,54.17,20.791,82.988-.118.655-1.129.476-1.129-.138,0-6.561.2-13.062.177-19.544-.118-.3-.218-.574-.336-.871-5.669-4.123-10.881-8.781-14.112-15.163-3.628-7.135-5.055-15.182-7.829-22.635-.258-.714.5-.5,1-.136,13.213,9.746,17.426,20.233,21.217,34.248a116.541,116.541,0,0,0-2.3-21.823c-2.855-13.3-8.5-26.479-18.057-36.351C414.606,346.842,415.16,346.267,415.538,346.644Z" transform="translate(-391.744 -329.466)" fill="#263238"/>
        <g id="Group_13020" data-name="Group 13020">
          <path id="Path_13831" data-name="Path 13831" d="M418.7,354.922c-3.737.127-6.079,6.1-8.992,7.843-1.541.927-3.041.87-4.125-.649-2.885-4.029,1.074-9,4.8-11.777-2.664,1.094-4.872,3.018-7.743,3.564-1.738.318-3.09-.326-3.5-2.094-1.265-5.491,5.623-7.934,10.349-8.051-2.291-1.593-8.858-5.923-5.369-8.051,3.535-2.138,11.24,4.053,13.754,6.093,3.694,3,8.1,7.476,8.266,12.163C426.358,359.438,421.574,356.069,418.7,354.922Z" transform="translate(-398.988 -335.266)" fill="#ffc727"/>
          <path id="Path_13832" data-name="Path 13832" d="M418.7,354.922c-3.737.127-6.079,6.1-8.992,7.843-1.541.927-3.041.87-4.125-.649-2.885-4.029,1.074-9,4.8-11.777-2.664,1.094-4.872,3.018-7.743,3.564-1.738.318-3.09-.326-3.5-2.094-1.265-5.491,5.623-7.934,10.349-8.051-2.291-1.593-8.858-5.923-5.369-8.051,3.535-2.138,11.24,4.053,13.754,6.093,3.694,3,8.1,7.476,8.266,12.163C426.358,359.438,421.574,356.069,418.7,354.922Z" transform="translate(-398.988 -335.266)" fill="#f06e38"/>
          <path id="Path_13833" data-name="Path 13833" d="M417.963,354.132c-4.778-2.171-13.957.955-14.738-.853-1.582-3.682,5.754-6.207,9.711-6.7-3.646-.988-10.633-2.561-10.418-6.078.262-4.294,10.716-.6,16.007,3.456,6.666,5.111,6.623,10.043,5.52,11.031C422.536,356.348,418.753,354.492,417.963,354.132Z" transform="translate(-397.171 -333.555)" fill="#fffbee"/>
        </g>
      </g>
      <g id="Group_13023" data-name="Group 13023" transform="translate(48.321 29.773)">
        <path id="Path_13834" data-name="Path 13834" d="M455.824,345.251c-22.517,20.426-27.413,53.165-23.934,82.137.094.659,1.111.518,1.135-.1.248-6.555.3-13.06.564-19.535.13-.292.241-.567.371-.859,5.82-3.9,11.207-8.36,14.678-14.615,3.9-6.993,5.628-14.98,8.684-22.321.285-.7-.483-.523-1-.174-13.575,9.236-18.182,19.556-22.5,33.416a116.584,116.584,0,0,1,3.128-21.72c3.358-13.181,9.5-26.137,19.426-35.638C456.747,345.485,456.214,344.889,455.824,345.251Z" transform="translate(-430.878 -328.725)" fill="#263238"/>
        <g id="Group_13022" data-name="Group 13022" transform="translate(21.214)">
          <path id="Path_13835" data-name="Path 13835" d="M452.5,353.465c3.729.268,5.843,6.326,8.687,8.179,1.5.985,3.006.985,4.146-.491,3.038-3.915-.73-9.033-4.346-11.951,2.62,1.194,4.753,3.2,7.6,3.855,1.724.385,3.1-.208,3.573-1.958,1.473-5.441-5.317-8.143-10.036-8.439,2.35-1.5,9.076-5.582,5.672-7.842-3.452-2.271-11.387,3.623-13.977,5.564-3.8,2.855-8.378,7.164-8.723,11.842C444.671,357.686,449.579,354.5,452.5,353.465Z" transform="translate(-444.78 -334.306)" fill="#ffc727"/>
          <path id="Path_13836" data-name="Path 13836" d="M452.5,353.465c3.729.268,5.843,6.326,8.687,8.179,1.5.985,3.006.985,4.146-.491,3.038-3.915-.73-9.033-4.346-11.951,2.62,1.194,4.753,3.2,7.6,3.855,1.724.385,3.1-.208,3.573-1.958,1.473-5.441-5.317-8.143-10.036-8.439,2.35-1.5,9.076-5.582,5.672-7.842-3.452-2.271-11.387,3.623-13.977,5.564-3.8,2.855-8.378,7.164-8.723,11.842C444.671,357.686,449.579,354.5,452.5,353.465Z" transform="translate(-444.78 -334.306)" fill="#f06e38"/>
          <path id="Path_13837" data-name="Path 13837" d="M451.479,352.652c4.858-1.99,13.912,1.483,14.76-.294,1.721-3.617-5.513-6.42-9.451-7.06,3.682-.849,10.724-2.155,10.642-5.676-.1-4.3-10.686-1.009-16.127,2.844-6.857,4.855-7,9.784-5.935,10.813C446.827,354.69,450.677,352.98,451.479,352.652Z" transform="translate(-444.878 -332.614)" fill="#fffbee"/>
        </g>
      </g>
      <g id="Group_13025" data-name="Group 13025" transform="translate(13.581)">
        <path id="Path_13838" data-name="Path 13838" d="M438.161,406.811c-1.664,10.765-3.723,21.894-6.991,32.3a.8.8,0,0,1-1.574-.318c1.479-9.952,4.176-19.721,5.655-29.674a149.333,149.333,0,0,0,1.729-30.464c-.949-16.771-5.5-34.612-16.445-47.734-.241-.312.27-.752.517-.462,21.911,25.548,18.424,56.87,18.4,59.676,3.1-10.577,6.3-22.7,18.032-33.468.506-.465.9-.244.817.544-2.1,19.617-7.552,29.86-18.926,40.346C439.055,400.662,438.655,403.756,438.161,406.811Z" transform="translate(-401.5 -306.567)" fill="#263238"/>
        <g id="Group_13024" data-name="Group 13024">
          <path id="Path_13839" data-name="Path 13839" d="M426.786,341.946c-3.941-1.75-9.378,3.268-13.278,3.611-2.065.186-3.593-.627-3.952-2.749-.967-5.632,5.643-8.795,10.905-9.805-3.314-.2-6.575.68-9.827-.2-1.965-.546-3.043-1.894-2.574-3.932,1.452-6.335,9.828-5.4,14.791-3.143-1.576-2.806-6.21-10.605-1.518-11.058,4.744-.438,9.623,9.864,11.2,13.245,2.324,4.97,4.641,11.836,2.453,16.783C432.46,350.487,429.192,344.585,426.786,341.946Z" transform="translate(-407.951 -314.658)" fill="#ffc727"/>
          <path id="Path_13840" data-name="Path 13840" d="M426.786,341.946c-3.941-1.75-9.378,3.268-13.278,3.611-2.065.186-3.593-.627-3.952-2.749-.967-5.632,5.643-8.795,10.905-9.805-3.314-.2-6.575.68-9.827-.2-1.965-.546-3.043-1.894-2.574-3.932,1.452-6.335,9.828-5.4,14.791-3.143-1.576-2.806-6.21-10.605-1.518-11.058,4.744-.438,9.623,9.864,11.2,13.245,2.324,4.97,4.641,11.836,2.453,16.783C432.46,350.487,429.192,344.585,426.786,341.946Z" transform="translate(-407.951 -314.658)" fill="#f06e38"/>
          <path id="Path_13841" data-name="Path 13841" d="M425.868,341.49c-3.864-4.658-14.962-6.035-14.86-8.305.211-4.616,9.093-3.543,13.446-2.056-3.287-2.861-9.743-8.011-7.751-11.551,2.435-4.325,11.422,4.77,14.869,11.643,4.344,8.658,1.817,13.754.176,14.224C429.5,346.089,426.506,342.26,425.868,341.49Z" transform="translate(-406.376 -312.701)" fill="#fffbee"/>
        </g>
      </g>
      <path id="Path_13842" data-name="Path 13842" d="M458.367,384.739l9.663,73.832h-58.8c1.211-6.541,12.154-73.917,12.154-73.917Z" transform="translate(-393.711 -278.591)" fill="#455a64"/>
    </g>
  </g>
  <g id="Character" transform="translate(4.961 182.289)">
    <g id="Group_13068" data-name="Group 13068">
      <g id="Group_13067" data-name="Group 13067">
        <g id="Group_13027" data-name="Group 13027" transform="translate(79.444 30.92)">
          <path id="Path_13843" data-name="Path 13843" d="M270.229,350.4a1.608,1.608,0,0,1-1.462,1.54c-1.85-.059-4.072-.161-6.566-.265-4.228-15.83-9.246-28.583-8.1-23.69,1.665,7.082,2.385,17.1,1.647,23.4-2.893-.141-9.59-.53-12.943-.726-2.229-27.32-6.628-47.87-6.873-41.7-.986,24.893-3.291,32.684-5.908,40.991-31.228-1.841-72.139-4.7-101.672-7.407-1.837-15.166-3.117-31.507-3.752-30.442-4.908,7.946-7.287,19.964-8.366,29.3-9.4-.929-16.888-1.841-21.427-2.628,0,0-.874-12.681-.756-16.81a86.075,86.075,0,0,1,6.6-30.843c4.222-10.049,10.589-18.644,16.7-27.5a.94.94,0,0,1,.149-.192c0-.03.024-.038.048-.074a88.529,88.529,0,0,0,9.892-18.488.511.511,0,0,0,.067-.141,85.673,85.673,0,0,0,4-14.58c3.306-18.141,15.28-32.871,32.977-35.886,32.21-21.05,66.854-10.86,74.189,13.621.7,2.385,1.346,5.1,1.933,8.054l.017.092c2.206,10.916,3.729,24.946,5.358,35.835a.043.043,0,0,0,.009.062c-.024.036-.018.067.021.121l0,.032a100.7,100.7,0,0,0,2.559,12.65C254.749,284.667,272.343,297.479,270.229,350.4Z" transform="translate(-90.813 -182.864)" fill="#263238"/>
          <path id="Path_13844" data-name="Path 13844" d="M157.56,193.21c-11.9,4.69-19.727,12.551-22.89,25.714-1.843,7.673-3.164,15.21-6.929,22.238-3.885,7.255-9.425,12.957-15.1,18.638-9.017,9.025-15.618,18.262-18.244,31.231-2.665,13.171-3.69,28.934-.517,41.817a.058.058,0,1,0,.114-.026c-2.306-12.965-.556-30.4,3.084-43.344,4-14.221,13.16-22.47,22.714-32.594a60.753,60.753,0,0,0,15.459-28.257c1.538-6.508,2.168-13.383,5.481-19.318,3.953-7.084,10.774-11.139,17.485-14.666A.789.789,0,0,0,157.56,193.21Z" transform="translate(-91.912 -177.565)" fill="#263238"/>
          <path id="Path_13845" data-name="Path 13845" d="M215.576,275.966c-6.86-11.2-14.21-20.909-17.509-34.265-3.006-12.168-4.123-24.81-7.207-36.971a.151.151,0,1,0-.3.059c4.461,21.49,3.529,42.6,15.1,61.5,6.29,10.266,12.651,19.835,16.254,31.734,3.787,12.5,4.641,25.193,3.575,38.389-.036.461.556.5.642.061A84.5,84.5,0,0,0,215.576,275.966Z" transform="translate(-41.082 -171.662)" fill="#263238"/>
        </g>
        <g id="Group_13037" data-name="Group 13037" transform="translate(151.545 101.147)">
          <g id="Group_13033" data-name="Group 13033" transform="translate(3.27)">
            <g id="Group_13028" data-name="Group 13028" transform="translate(139.767)">
              <path id="Path_13846" data-name="Path 13846" d="M276.785,232.36l-42.112,79.3c-1.512,2.258-.764,4.581,1.674,5.181l43.625,10.739a7.271,7.271,0,0,0,7.158-3.008l42.112-79.3c1.517-2.264.764-4.581-1.671-5.181l-43.625-10.739A7.27,7.27,0,0,0,276.785,232.36Z" transform="translate(-233.891 -229.211)" fill="#37474f"/>
              <path id="Path_13847" data-name="Path 13847" d="M280.21,233.172l-42.112,79.3c-1.514,2.258-.764,4.581,1.674,5.181L283.4,328.39a7.276,7.276,0,0,0,7.16-3.006l42.111-79.3c1.517-2.262.764-4.581-1.671-5.181l-43.625-10.737A7.267,7.267,0,0,0,280.21,233.172Z" transform="translate(-232.127 -228.792)" fill="#455a64"/>
              <path id="Path_13848" data-name="Path 13848" d="M275.442,238.229a3.818,3.818,0,1,1-2.691-4.679A3.816,3.816,0,0,1,275.442,238.229Z" transform="translate(-216.348 -227.043)" fill="#263238"/>
            </g>
            <path id="Path_13849" data-name="Path 13849" d="M146.085,318.042c18.174,56.988,65.639,134.124,89.012,137.5,11.122,1.606,30.669,6.876,46.967-4.008,35.565-23.755,71.022-71.254,82.023-98.866,4.125-10.352-49.816-45.831-58.794-38-21.018,18.347-47.631,56.265-50.837,55.6-11.866-2.482-53.621-47.654-82.734-79.426C136.38,252.27,138.844,295.331,146.085,318.042Z" transform="translate(-141.653 -205.414)" fill="#ffbe9d"/>
            <g id="Group_13032" data-name="Group 13032" transform="translate(133.705 18.441)">
              <path id="Path_13850" data-name="Path 13850" d="M307.128,315.711c.042-22.981-3.475-28.887,6.861-48.264,6.782-12.715,1.574-22.5-10.821-14.075-20.273,13.78-26.555,43.417-25.773,54.319Z" transform="translate(-205.446 -236.824)" fill="#ffbe9d"/>
              <g id="Group_13029" data-name="Group 13029" transform="translate(18.279)">
                <path id="Path_13851" data-name="Path 13851" d="M305.145,383.489s17.323-27.613,19.789-52.1c1.708-16.932,1.314-54.183-39.626-84.252-9.71-7.132-28.605-10.408-16.976,7,8.26,12.365,17.235,17.71,20.729,25.779,0,0-24.528-1.315-31.293,8.692-3.023,4.473-10.989,16.872-15.815,27.41a46.8,46.8,0,0,0,4.864,3.42s-6.04,9.568-2.087,26.34Z" transform="translate(-241.954 -241.381)" fill="#ffbe9d"/>
              </g>
              <path id="Path_13852" data-name="Path 13852" d="M330.2,307.14c-5.163-7.273-16.36-22.508-29.855-31.783-14.991-10.3-46.643-26.107-54.135-14.963-5.493,8.172,6.063,15.268,6.063,15.268s-14.46-3.775-17.807,4.693c-3.05,7.714,6.217,12.669,6.217,12.669s-9.166-.782-10.672,7.216c-1.812,9.619,17.694,9.68,24.276,21.009C255.764,323.791,330.2,307.14,330.2,307.14Z" transform="translate(-229.891 -233.55)" fill="#ffbe9d"/>
              <g id="Group_13030" data-name="Group 13030" transform="translate(22.295 41.939)">
                <path id="Path_13853" data-name="Path 13853" d="M284.518,286.58c-5.976-6.044-23.072-16.291-39.491-17.52-.371-.029-.592.238-.258.335a178.613,178.613,0,0,1,39.652,17.326C284.506,286.774,284.584,286.648,284.518,286.58Z" transform="translate(-244.604 -269.059)" fill="#263238"/>
              </g>
              <g id="Group_13031" data-name="Group 13031" transform="translate(10.494 59.157)">
                <path id="Path_13854" data-name="Path 13854" d="M277.692,295.555c-5.693-4.687-23.785-14.46-40.465-15.133-.373-.015-.576.267-.238.35A191.366,191.366,0,0,1,277.6,295.7C277.692,295.749,277.764,295.616,277.692,295.555Z" transform="translate(-236.817 -280.422)" fill="#263238"/>
              </g>
            </g>
          </g>
          <g id="Group_13036" data-name="Group 13036" transform="translate(0 66.265)">
            <path id="Path_13855" data-name="Path 13855" d="M172.736,392.135l46.314-58.012s-36.862-40.661-60.426-57.512c-13.206-9.443-20.712.677-18.845,15.225C146.31,342.752,172.736,392.135,172.736,392.135Z" transform="translate(-139.493 -272.942)" fill="#ffc727"/>
            <path id="Path_13856" data-name="Path 13856" d="M172.736,392.135l46.314-58.012s-36.862-40.661-60.426-57.512c-13.206-9.443-20.712.677-18.845,15.225C146.31,342.752,172.736,392.135,172.736,392.135Z" transform="translate(-139.493 -272.942)" fill="#f06e38"/>
            <path id="Path_13857" data-name="Path 13857" d="M204.272,317.257a4.069,4.069,0,1,0,0,8.137,4.069,4.069,0,0,0,0-8.137Zm0,7.44a3.364,3.364,0,1,1,3.349-3.349A3.356,3.356,0,0,1,204.272,324.7Zm-37.442,5.061a4.053,4.053,0,1,0,4.061,4.061A4.058,4.058,0,0,0,166.83,329.758Zm0,7.41a3.356,3.356,0,1,1,3.364-3.349A3.35,3.35,0,0,1,166.83,337.167Zm2.955-39.882a4.068,4.068,0,1,0,4.061,4.046A4.071,4.071,0,0,0,169.785,297.285Zm0,7.44a3.372,3.372,0,1,1,3.349-3.394A3.376,3.376,0,0,1,169.785,304.725ZM139.646,280.39c-.03.227-.045.455-.076.7a3.368,3.368,0,0,1,.106,6.394c.015.167.045.348.061.515.015.061.015.121.03.182a4.056,4.056,0,0,0-.121-7.788Zm55.686,79.552a4.066,4.066,0,1,0-4.061,4.349,4.138,4.138,0,0,0,.621-.045l.773-.955a3.29,3.29,0,0,1-1.394.3,3.371,3.371,0,1,1,3.379-3.379,3.481,3.481,0,0,1-.076.682Z" transform="translate(-139.456 -269.104)" fill="#fff"/>
            <path id="Path_13858" data-name="Path 13858" d="M213.75,340.688l-41,51.415s-26.431-49.387-32.971-100.3c-1.285-10,1.871-17.889,8.249-18.786Z" transform="translate(-139.494 -272.902)" opacity="0.1"/>
            <g id="Group_13035" data-name="Group 13035" transform="translate(28.79 55.881)">
              <g id="Group_13034" data-name="Group 13034">
                <path id="Path_13859" data-name="Path 13859" d="M198.511,309.853c-7.864,8.334-28.542,31.56-40.008,48.408-.068.1.285.408.368.318,11.652-12.577,33.054-39.286,40.167-48.27C199.171,310.14,198.659,309.7,198.511,309.853Z" transform="translate(-158.494 -309.82)" fill="#263238"/>
              </g>
            </g>
          </g>
        </g>
        <g id="Group_13039" data-name="Group 13039" transform="translate(16.282 162.358)">
          <path id="Path_13860" data-name="Path 13860" d="M50.228,475.45l199.758-.468L238.948,406.3s15.8-19.173,12.807-39.97c-3.276-22.791-44.363-80.543-47.822-83.8-13.9-13.051-28.63-15.4-42.773-10.686h-.033C95.815,312.9,50.228,475.45,50.228,475.45Z" transform="translate(-50.228 -269.606)" fill="#f06e38"/>
          <path id="Path_13861" data-name="Path 13861" d="M242.308,448.214a3.368,3.368,0,0,1-5.955-2.137,3.385,3.385,0,0,1,3.379-3.394,3.239,3.239,0,0,1,1.773.515l-.136-.864a3.911,3.911,0,0,0-1.636-.349,4.069,4.069,0,1,0,2.712,7.107Zm-40.321-20.987a4.069,4.069,0,1,0,4.061,4.076A4.081,4.081,0,0,0,201.987,427.227Zm0,7.44a3.371,3.371,0,1,1,3.364-3.364A3.373,3.373,0,0,1,201.987,434.667Zm31.851-73.536a4.069,4.069,0,1,0,4.076,4.061A4.061,4.061,0,0,0,233.838,361.131Zm0,7.44a3.372,3.372,0,1,1,3.379-3.379A3.366,3.366,0,0,1,233.838,368.571ZM87.4,463.973a4.069,4.069,0,1,0,0,8.137,4.069,4.069,0,0,0,0-8.137Zm0,7.44a3.364,3.364,0,1,1,3.349-3.349A3.356,3.356,0,0,1,87.4,471.413Zm41.4-20.8a4.069,4.069,0,1,0,4.046,4.076A4.081,4.081,0,0,0,128.8,450.608Zm0,7.425a3.364,3.364,0,1,1,3.349-3.349A3.369,3.369,0,0,1,128.8,458.033ZM97.509,347.766a3.543,3.543,0,0,0-.576.045c-.152.273-.288.53-.424.8a3.63,3.63,0,0,1,1-.152,3.356,3.356,0,1,1-3.182,4.379c-.152.288-.288.561-.424.833a4.057,4.057,0,1,0,3.606-5.91Zm11.44,31.124a4.053,4.053,0,1,0,4.046,4.046A4.058,4.058,0,0,0,108.949,378.89Zm0,7.41a3.356,3.356,0,1,1,3.349-3.364A3.376,3.376,0,0,1,108.949,386.3Zm33.442-91.977a4.069,4.069,0,0,0,0,8.137,4.069,4.069,0,1,0,0-8.137Zm0,7.44a3.372,3.372,0,1,1,3.394-3.379A3.376,3.376,0,0,1,142.391,301.763Zm4.076,63.081a4.068,4.068,0,1,0,4.076,4.061A4.061,4.061,0,0,0,146.467,364.844Zm0,7.44a3.364,3.364,0,1,1,3.379-3.379A3.369,3.369,0,0,1,146.467,372.284Zm34.685-87.068a4.061,4.061,0,1,0,4.046,4.076A4.074,4.074,0,0,0,181.152,285.216Zm0,7.425a3.364,3.364,0,1,1,3.349-3.349A3.363,3.363,0,0,1,181.152,292.641Zm31.2,9.622a4.068,4.068,0,1,0,4.061,4.046A4.071,4.071,0,0,0,212.351,302.263Zm0,7.44a3.372,3.372,0,1,1,3.349-3.394A3.376,3.376,0,0,1,212.351,309.7ZM198.638,459.912a4.069,4.069,0,1,0,4.061,4.061A4.061,4.061,0,0,0,198.638,459.912Zm0,7.44a3.372,3.372,0,1,1,3.349-3.379A3.366,3.366,0,0,1,198.638,467.352ZM161.484,433.41a4.053,4.053,0,1,0,4.046,4.046A4.058,4.058,0,0,0,161.484,433.41Zm0,7.41a3.356,3.356,0,1,1,3.349-3.364A3.376,3.376,0,0,1,161.484,440.819Zm43.867-56.308a4.069,4.069,0,1,0,4.046,4.046A4.058,4.058,0,0,0,205.351,384.512Zm0,7.425a3.364,3.364,0,1,1,3.349-3.379A3.369,3.369,0,0,1,205.351,391.937Zm4.046-57.2a4.053,4.053,0,1,0,4.061,4.061A4.058,4.058,0,0,0,209.4,334.735Zm0,7.41a3.356,3.356,0,1,1,3.364-3.349A3.35,3.35,0,0,1,209.4,342.145Zm28.154,58.747a4.054,4.054,0,0,0-1.606,7.773l-.136-.864a3.351,3.351,0,0,1,1.743-6.213,2.885,2.885,0,0,1,.818.106c.121-.2.258-.394.394-.621A3.978,3.978,0,0,0,237.55,400.892Zm-53.019-43.473a4.068,4.068,0,1,0,4.061,4.076A4.087,4.087,0,0,0,184.531,357.419Zm0,7.425a3.364,3.364,0,1,1,3.349-3.349A3.356,3.356,0,0,1,184.531,364.844ZM80.174,400.892a4.053,4.053,0,1,0,4.061,4.046A4.058,4.058,0,0,0,80.174,400.892Zm0,7.41a3.356,3.356,0,1,1,3.349-3.364A3.363,3.363,0,0,1,80.174,408.3Zm81.31,62.429a4.066,4.066,0,0,0-4.061,3.879h.712a3.37,3.37,0,0,1,3.349-3.182,3.332,3.332,0,0,1,3.334,3.167h.712A4.06,4.06,0,0,0,161.484,470.731ZM130.1,407.211a4.053,4.053,0,1,0,4.061,4.046A4.055,4.055,0,0,0,130.1,407.211Zm0,7.41a3.356,3.356,0,1,1,3.364-3.364A3.353,3.353,0,0,1,130.1,414.62Zm2.015-81.946a4.054,4.054,0,1,0,4.091,4.061A4.058,4.058,0,0,0,132.118,332.674Zm0,7.41a3.356,3.356,0,0,1,0-6.713,3.357,3.357,0,1,1,0,6.713ZM60.036,436.031a4.173,4.173,0,0,0-.773.076c-.091.273-.182.53-.273.788a3.431,3.431,0,0,1,1.046-.167,3.371,3.371,0,1,1,0,6.743,3.311,3.311,0,0,1-2.8-1.53c-.091.273-.182.53-.273.788a4.026,4.026,0,0,0,3.076,1.44,4.069,4.069,0,1,0,0-8.137Zm44.2-6.728a4.069,4.069,0,1,0,4.076,4.046A4.058,4.058,0,0,0,104.237,429.3Zm0,7.425a3.364,3.364,0,1,1,3.379-3.379A3.369,3.369,0,0,1,104.237,436.728Zm64.672-39.2a4.061,4.061,0,1,0,4.046,4.061A4.087,4.087,0,0,0,168.908,397.528Zm0,7.41a3.349,3.349,0,1,1,3.349-3.349A3.369,3.369,0,0,1,168.908,404.938ZM158.377,271.048a3.26,3.26,0,0,1-2.44,1.333h-.015c-.318.212-.621.424-.939.652a3.509,3.509,0,0,0,.7.061,4.084,4.084,0,0,0,3.7-2.364C159.044,270.836,158.711,270.927,158.377,271.048ZM170.924,316.2a4.069,4.069,0,1,0,4.091,4.046A4.055,4.055,0,0,0,170.924,316.2Zm0,7.44a3.372,3.372,0,1,1,3.394-3.394A3.379,3.379,0,0,1,170.924,323.643Z" transform="translate(-46.759 -269.027)" fill="#fff"/>
          <path id="Path_13862" data-name="Path 13862" d="M166.14,296.485c3.861,6.425,8.125,12.633,12.166,18.968-1.627-4.485-3.229-8.983-5.02-13.407-.035-.089.089-.164.135-.074a92.659,92.659,0,0,1,6.916,16.713,127.345,127.345,0,0,1,8.07,14.915,59.6,59.6,0,0,1,5.416,19.549,50.393,50.393,0,0,1-2.838,20.123c-2.552,7.464-6.275,14.436-10.119,21.3-.511.909-1.774.068-1.35-.835,5.669-12.081,11.927-24.793,11.358-38.492-.562-13.53-6.87-26.026-13.054-37.774a187.449,187.449,0,0,0-12.127-20.737C165.506,296.467,165.969,296.2,166.14,296.485Z" transform="translate(9.245 -255.82)" fill="#263238"/>
          <g id="Group_13038" data-name="Group 13038" transform="translate(108.934 131.434)">
            <path id="Path_13863" data-name="Path 13863" d="M170.287,356.348a165.958,165.958,0,0,0-24.258,3.988c-3.95,1.012-7.828,2.2-11.7,3.476-1.93.636-3.868,1.2-5.822,1.765a26.162,26.162,0,0,1-6.249,1.179.146.146,0,0,0,0,.292,44.567,44.567,0,0,0,6.019-.112,42.985,42.985,0,0,0,5.737-1.082c4.019-.988,7.987-2.162,11.993-3.193,8.082-2.077,16.162-4.152,24.378-5.641C170.767,356.952,170.672,356.307,170.287,356.348Z" transform="translate(-122.118 -356.346)" fill="#263238"/>
            <path id="Path_13864" data-name="Path 13864" d="M181.042,361.458a179.928,179.928,0,0,0-20.264-.974c-3.388.041-6.748.277-10.119.6-1.609.156-3.215.341-4.82.546-1.764.224-3.5.686-5.267.886-.185.02-.185.308,0,.291,1.671-.136,3.375,0,5.052-.038s3.37-.094,5.055-.135c3.376-.082,6.749-.126,10.125-.241,6.755-.227,13.483-.388,20.243-.382C181.416,362.014,181.389,361.494,181.042,361.458Z" transform="translate(-112.681 -354.219)" fill="#263238"/>
          </g>
        </g>
        <g id="Group_13049" data-name="Group 13049" transform="translate(0 165.517)">
          <g id="Group_13044" data-name="Group 13044">
            <path id="Path_13865" data-name="Path 13865" d="M142.716,288.765C91.837,342.095,28.573,453.542,41.086,475.712c13.936,24.693,86.73-50.778,84.426-54.415-1.955-3.088,23.97-70.634,42.385-119.711C186.3,252.554,155.3,275.577,142.716,288.765Z" transform="translate(-39.483 -271.692)" fill="#ffbe9d"/>
            <g id="Group_13043" data-name="Group 13043" transform="translate(40.891 0)">
              <path id="Path_13866" data-name="Path 13866" d="M66.469,352.7l73.057,13.154s18.238-51.765,21.853-80.508c2.027-16.106-7.438-16.768-19.347-8.208C100.347,307.1,66.469,352.7,66.469,352.7Z" transform="translate(-66.469 -271.692)" fill="#f06e38"/>
              <path id="Path_13867" data-name="Path 13867" d="M85.1,347.22a4.053,4.053,0,1,0,4.061,4.046A4.058,4.058,0,0,0,85.1,347.22Zm0,7.41a3.356,3.356,0,1,1,3.349-3.364A3.363,3.363,0,0,1,85.1,354.63Zm44.882-60.853a4.069,4.069,0,0,0,0,8.137,4.069,4.069,0,1,0,0-8.137Zm0,7.44a3.372,3.372,0,1,1,3.394-3.379A3.376,3.376,0,0,1,129.983,301.217Zm-31.927,8.516a4.116,4.116,0,0,0-1.773.409h-.015c-.636.636-1.258,1.258-1.879,1.894v.015A3.924,3.924,0,0,0,94,313.793a4.069,4.069,0,1,0,4.061-4.061Zm0,7.44a3.371,3.371,0,1,1,3.379-3.379A3.369,3.369,0,0,1,98.057,317.172Zm33,48.474.849.151a.592.592,0,0,1,.152-.121c.061-.167.182-.515.364-1.03A3.751,3.751,0,0,0,131.059,365.646ZM119.71,332.128a4.054,4.054,0,1,0,4.091,4.061A4.058,4.058,0,0,0,119.71,332.128Zm0,7.41a3.356,3.356,0,0,1,0-6.713,3.357,3.357,0,1,1,0,6.713ZM142.8,272.517a4.584,4.584,0,0,0,.47.03,4.023,4.023,0,0,0,2.349-.758A14.325,14.325,0,0,0,142.8,272.517Z" transform="translate(-58.961 -271.641)" fill="#fff"/>
              <g id="Group_13041" data-name="Group 13041" transform="translate(10.809 70.03)">
                <g id="Group_13040" data-name="Group 13040">
                  <path id="Path_13868" data-name="Path 13868" d="M135.37,330.08c-11.072-2.955-41.337-10.1-61.611-12.172-.121-.012-.223.445-.1.476,16.606,4.269,50.28,10.393,61.566,12.377C135.433,330.8,135.578,330.136,135.37,330.08Z" transform="translate(-73.602 -317.908)" fill="#263238"/>
                </g>
              </g>
              <g id="Group_13042" data-name="Group 13042" transform="translate(64.152 47.083)">
                <path id="Path_13869" data-name="Path 13869" d="M108.806,348.243c3.012.289,6.013.648,9,1.055l-.627.373c2.171-7.961,4.588-15.841,7.184-23.663,2.611-7.816,5.361-15.589,8.505-23.244-1.909,8.037-4.214,15.959-6.655,23.835-2.458,7.873-5.1,15.689-7.976,23.422l-.177.474-.45-.1Q113.194,349.4,108.806,348.243Z" transform="translate(-108.806 -302.764)" fill="#263238"/>
                <path id="Path_13870" data-name="Path 13870" d="M121.5,316.122a22.53,22.53,0,0,1,2.491-4.611,33.225,33.225,0,0,1,3.3-4.1,9.551,9.551,0,0,1-.867,2.511,16.81,16.81,0,0,1-1.321,2.28A17.247,17.247,0,0,1,121.5,316.122Z" transform="translate(-102.267 -300.371)" fill="#263238"/>
              </g>
            </g>
          </g>
          <g id="Group_13048" data-name="Group 13048" transform="translate(2.031 141.958)">
            <g id="Group_13047" data-name="Group 13047" transform="translate(0 0.283)">
              <path id="Path_13871" data-name="Path 13871" d="M42.038,429.615c13.8,14.931,45.655,13.783,126.134,18.421,11.136.641,36.806-76.732,24.949-78.027-14.935-1.633-73.245-4.735-77.538-4.423C79.374,368.214,32.675,419.485,42.038,429.615Z" transform="translate(-40.823 -365.564)" fill="#ffbe9d"/>
              <g id="Group_13046" data-name="Group 13046" transform="translate(90.493 3.013)">
                <path id="Path_13872" data-name="Path 13872" d="M146.184,367.552s33.891.477,51.619,6.241c23.738,7.716,41.056,24.152,47.9,31.478,14.281,15.292,38.238,62.14,25.949,71.4-11.124,8.376-33.194-40.747-33.194-40.747s30.766,46.372,15.518,54-37.624-50.859-37.624-50.859,30.542,48.355,13.574,53.729c-12.824,4.062-36.073-47.764-36.073-47.764s25.964,41.744,12.956,46.489c-14.374,5.243-38.835-41.25-38.835-41.25-35.1,6.5-54.463-4.769-67.286-14.421C97.582,433.5,146.184,367.552,146.184,367.552Z" transform="translate(-100.544 -367.552)" fill="#ffbe9d"/>
                <g id="Group_13045" data-name="Group 13045" transform="translate(87.887 51.59)">
                  <path id="Path_13873" data-name="Path 13873" d="M185.3,401.655c3.811,5.317,7.705,10.672,11.03,16.309s6.457,11.395,9.243,17.317c6.832,14.522,8.84,24.685,8.646,24.072-4.549-14.527-16.141-34.891-19.468-40.531-3.318-5.625-6.355-11.418-9.67-17.047C184.993,401.633,185.205,401.53,185.3,401.655Z" transform="translate(-144.883 -401.599)" fill="#263238"/>
                  <path id="Path_13874" data-name="Path 13874" d="M171.7,409.332c4.573,7,9.367,13.78,13.633,20.985,4.244,7.167,7.643,14.341,11.383,21.781.288.573-.115.541-.427-.024-4.034-7.285-8.325-13.71-12.442-20.949-4.1-7.213-7.96-14.639-12.322-21.7C171.459,409.318,171.633,409.226,171.7,409.332Z" transform="translate(-151.863 -397.638)" fill="#263238"/>
                  <path id="Path_13875" data-name="Path 13875" d="M158.932,413.84c7.535,10.339,13.156,22.056,18.392,33.68.261.58-.255.479-.556-.1-5.9-11.312-10.452-20.227-18.2-33.321C158.45,413.9,158.773,413.622,158.932,413.84Z" transform="translate(-158.544 -395.332)" fill="#263238"/>
                </g>
              </g>
            </g>
            <path id="Path_13876" data-name="Path 13876" d="M70.51,378.489c4.846-3.944,18.742-13.51,33.591-13.1a.13.13,0,0,1,.026.258c-12.03,1.382-28.464,9.6-33.472,13.042A.123.123,0,0,1,70.51,378.489Z" transform="translate(-25.551 -365.377)" fill="#263238"/>
          </g>
        </g>
        <g id="Group_13066" data-name="Group 13066" transform="translate(117.594)">
          <g id="Group_13065" data-name="Group 13065">
            <g id="Group_13064" data-name="Group 13064">
              <g id="Group_13050" data-name="Group 13050" transform="translate(19.637 106.348)">
                <path id="Path_13877" data-name="Path 13877" d="M130.051,289.87c.27,3.512,13.059,28.007,28.663,29.668,5.082.532,9.225-27.082,9.225-27.082l.773-1.968,10.783-27.566-30.219-26.684-4.408-3.594s-2.453,7.735-5.41,17.4c-.141.447-.28.894-.423,1.374-.182.542-.361,1.053-.506,1.567-.461,1.436-.924,2.908-1.355,4.382-.333,1.12-.664,2.208-.97,3.4-.338,1.186-.642,2.343-.98,3.529C132.139,276.05,129.957,288.382,130.051,289.87Z" transform="translate(-130.048 -232.643)" fill="#ffbe9d"/>
                <path id="Path_13878" data-name="Path 13878" d="M136.258,250.043a59.372,59.372,0,0,0,29.254,40.444l10.783-27.566-30.219-26.684-4.408-3.594S139.214,240.378,136.258,250.043Z" transform="translate(-126.848 -232.643)" fill="#263238"/>
              </g>
              <g id="Group_13063" data-name="Group 13063">
                <path id="Path_13879" data-name="Path 13879" d="M225.845,255.02c-6.843,51.495-38.458,53.21-49.56,51.722-10.08-1.35-44.225-7.229-42.74-59.155s27.592-65.023,50.806-63.154S232.688,203.525,225.845,255.02Z" transform="translate(-108.633 -151.223)" fill="#ffbe9d"/>
                <g id="Group_13056" data-name="Group 13056" transform="translate(68.983 84.516)">
                  <path id="Path_13880" data-name="Path 13880" d="M191.787,229.5a34.213,34.213,0,0,1-3.29-1.429c-1.258-.562-2.315-.882-3.079-2.1a1.85,1.85,0,0,1,.456-2.209c1.39-1.064,3.1-.758,4.641-.142a6.735,6.735,0,0,1,3.661,3.181A1.971,1.971,0,0,1,191.787,229.5Z" transform="translate(-150.964 -215.749)" fill="#263238"/>
                  <path id="Path_13881" data-name="Path 13881" d="M167.195,223.146a34.576,34.576,0,0,0,3.588-.021c1.376-.024,2.474.1,3.655-.72a1.848,1.848,0,0,0,.449-2.211c-.859-1.526-2.552-1.915-4.209-1.956a6.738,6.738,0,0,0-4.617,1.485A1.972,1.972,0,0,0,167.195,223.146Z" transform="translate(-161.187 -218.235)" fill="#263238"/>
                  <g id="Group_13052" data-name="Group 13052" transform="translate(0 10.366)">
                    <g id="Group_13051" data-name="Group 13051" transform="translate(3.384 1.545)">
                      <path id="Path_13882" data-name="Path 13882" d="M172.065,228.964c0-.138-.3.115-.323.259-.518,3.5-1.7,7.422-5.059,8.008-.1.018-.124.2-.006.2C170.618,237.584,172.134,232.362,172.065,228.964Z" transform="translate(-163.946 -224.639)" fill="#263238"/>
                      <path id="Path_13883" data-name="Path 13883" d="M170.516,226.223c-5.522-1.436-7.989,9.713-2.873,11.043C172.676,238.576,175.143,227.428,170.516,226.223Z" transform="translate(-164.847 -226.096)" fill="#263238"/>
                    </g>
                    <path id="Path_13884" data-name="Path 13884" d="M169.346,226.853c-1.114.415-2.314,1.318-3.512,1.174-1.389-.167-2.156-1.561-2.8-2.879-.067-.138-.185-.061-.22.086-.5,2.129-.167,4.5,2.052,5.328,2.026.753,3.944-.808,4.952-2.837C170.01,227.35,169.795,226.687,169.346,226.853Z" transform="translate(-162.614 -225.076)" fill="#263238"/>
                  </g>
                  <g id="Group_13054" data-name="Group 13054" transform="translate(31.001 16.537)">
                    <g id="Group_13053" data-name="Group 13053">
                      <path id="Path_13885" data-name="Path 13885" d="M184.185,231.09c.056-.126.232.224.2.365-.9,3.421-1.355,7.493,1.5,9.354.088.058.039.227-.073.185C182.126,239.586,182.784,234.187,184.185,231.09Z" transform="translate(-183.073 -228.162)" fill="#263238"/>
                      <path id="Path_13886" data-name="Path 13886" d="M187.977,229.181c5.641.852,3.526,12.072-1.7,11.284C181.132,239.689,183.249,228.469,187.977,229.181Z" transform="translate(-182.961 -229.149)" fill="#263238"/>
                    </g>
                    <path id="Path_13887" data-name="Path 13887" d="M188.077,229.979c.774.762,1.447,2.008,2.493,2.277,1.212.312,2.35-.73,3.353-1.746.1-.106.174,0,.15.155-.344,2.156-1.476,4.255-3.614,4.278-1.949.021-2.982-2.079-3.091-4.311C187.349,230.219,187.765,229.673,188.077,229.979Z" transform="translate(-180.86 -228.766)" fill="#263238"/>
                  </g>
                  <path id="Path_13888" data-name="Path 13888" d="M166.7,248.634c.6,1.02,1.123,2.34,2.334,2.778a9.328,9.328,0,0,0,3.9.13.124.124,0,0,1,.1.215,4.766,4.766,0,0,1-4.835.686c-1.473-.686-1.877-2.229-1.871-3.744C166.327,248.487,166.609,248.486,166.7,248.634Z" transform="translate(-160.701 -202.625)" fill="#263238"/>
                  <g id="Group_13055" data-name="Group 13055" transform="translate(10.235 2.483)">
                    <path id="Path_13889" data-name="Path 13889" d="M182.22,253.909s-.367,5.32-.876,7.76c-.048.229-.661.214-1.5.089-.042,0-.068.015-.1-.018a11.843,11.843,0,0,1-10.357-6.682.257.257,0,0,1,.433-.262c2.723,3.032,6.149,4.384,9.955,5.246.314-.639.323-9.133.715-9.081,1.358.165,3.794,1.62,5.276,2.411,1.083-11.06.385-22.2,1.629-33.2a.34.34,0,0,1,.67-.024c1.559,11.628.591,24.384-.233,35.835C187.748,257.409,183.11,254.529,182.22,253.909Z" transform="translate(-169.369 -219.873)" fill="#263238"/>
                  </g>
                </g>
                <g id="Group_13057" data-name="Group 13057">
                  <path id="Path_13890" data-name="Path 13890" d="M156.053,202.358c-1.756,4.082-25.169,6.882-35.477-8.929-10.152-15.572,3.293-34.741,21.915-25.6C154.26,173.607,159.765,193.727,156.053,202.358Z" transform="translate(-117.089 -160.913)" fill="#263238"/>
                  <path id="Path_13891" data-name="Path 13891" d="M119.179,173.569a26.012,26.012,0,0,1,15.157-8.076,15.689,15.689,0,0,1,14.733,5.369c3.717,4.193,5.637,9.839,6.67,15.533a48.434,48.434,0,0,1,.638,8.766,24,24,0,0,1-1.4,8.743c1.79-2.5,2.464-5.608,3.02-8.6a39.234,39.234,0,0,0,.311-9.23c-.564-6.126-2.473-12.454-6.732-17.38a18.237,18.237,0,0,0-8.082-5.44,18.44,18.44,0,0,0-9.623-.3A22.971,22.971,0,0,0,119.179,173.569Z" transform="translate(-116.012 -162.459)" fill="#263238"/>
                </g>
                <g id="Group_13059" data-name="Group 13059" transform="translate(21.726 30.812)">
                  <g id="Group_13058" data-name="Group 13058">
                    <path id="Path_13892" data-name="Path 13892" d="M137.173,250.617c9.1,3.732,17.336-17.2,17.336-17.2s41.975,4.026,54.2-27.739c0,0,1.258,22.688,19.736,37.788,0,0,8.264-36.207-18.264-50.831,0,0-31.789-22.34-59.152.285S131.065,248.112,137.173,250.617Z" transform="translate(-131.427 -182.793)" fill="#263238"/>
                  </g>
                  <path id="Path_13893" data-name="Path 13893" d="M198.961,196.328a36.824,36.824,0,0,1-5.817,14.438,38.343,38.343,0,0,1-11.136,11.152,32.383,32.383,0,0,1-3.441,1.98l-1.747.944c-.6.264-1.224.5-1.841.733-1.241.455-2.462.964-3.712,1.368-1.276.327-2.559.623-3.841.9-.642.136-1.277.3-1.921.415l-1.955.206-3.893.4c-2.606.021-5.209-.092-7.782-.241,2.577-.385,5.143-.5,7.667-.908L163.3,227l1.873-.356c.614-.161,1.214-.374,1.82-.558,1.208-.388,2.414-.761,3.628-1.1,1.18-.441,2.323-.979,3.484-1.461l1.735-.733,1.643-.92a31.572,31.572,0,0,0,3.231-1.917,43.989,43.989,0,0,0,10.963-10.234,45.81,45.81,0,0,0,4.132-6.381A44.464,44.464,0,0,0,198.961,196.328Z" transform="translate(-120.891 -175.819)" fill="#263238"/>
                </g>
                <g id="Group_13060" data-name="Group 13060" transform="translate(20.596 56.511)">
                  <path id="Path_13894" data-name="Path 13894" d="M134.886,204.909l-4.2,3.611L141.024,226l9.252-8.22ZM142,220.828l-7.545-11.207.959-.865,9.9,9.227Z" transform="translate(-130.681 -197.096)" fill="#e9af44"/>
                  <path id="Path_13895" data-name="Path 13895" d="M137.017,199.753l-2.535,4.931,16.166,12.292,5.473-11.1Zm12.592,12.065L138.4,204.279l.562-1.162,12.646,4.817Z" transform="translate(-128.722 -199.753)" fill="#e9af44"/>
                </g>
                <g id="Group_13062" data-name="Group 13062" transform="translate(12.27 85.259)">
                  <g id="Group_13061" data-name="Group 13061">
                    <path id="Path_13896" data-name="Path 13896" d="M145.486,234.872s-7.549-18.288-15.61-15.938-4.835,27.145,2.9,32.157,12.515-2.056,12.515-2.056Z" transform="translate(-125.186 -218.725)" fill="#ffbe9d"/>
                    <path id="Path_13897" data-name="Path 13897" d="M129.058,223.541a.119.119,0,0,0-.094.215c5.379,3.709,7.273,9.883,8.19,16.051-1.273-2.579-3.4-4.309-6.794-2.868-.179.076-.085.35.089.352,2.537.02,4.19.829,5.4,3.131a26.118,26.118,0,0,1,1.736,5.314c.159.589,1.176.52,1.111-.135,0-.047-.014-.1-.018-.147C140.5,237.948,136.983,226.1,129.058,223.541Z" transform="translate(-123.267 -216.247)" fill="#263238"/>
                  </g>
                </g>
              </g>
            </g>
          </g>
        </g>
      </g>
    </g>
  </g>
  <g id="Padlock" transform="translate(290.237 31.686)">
    <g id="Group_13070" data-name="Group 13070">
      <g id="Group_13069" data-name="Group 13069" transform="translate(15.355)">
        <path id="Path_13898" data-name="Path 13898" d="M316.461,104.934v42.394h-11.98V104.934c0-16.122-12.245-29.231-27.308-29.231s-27.308,13.109-27.308,29.231v42.394H237.883V104.934c0-23.09,17.624-41.865,39.29-41.865S316.461,81.845,316.461,104.934Z" transform="translate(-237.883 -63.069)" fill="#c7c7c7"/>
        <path id="Path_13899" data-name="Path 13899" d="M237.883,97.973l11.981.483v30.889H237.883Z" transform="translate(-237.883 -45.084)" fill="#a6a6a6"/>
        <path id="Path_13900" data-name="Path 13900" d="M293.814,100.251v28.172H281.834V99.76Z" transform="translate(-215.236 -44.163)" fill="#a6a6a6"/>
      </g>
      <rect id="Rectangle_1569" data-name="Rectangle 1569" width="109.287" height="99.149" transform="translate(0 60.12)" fill="#f06e38"/>
      <rect id="Rectangle_1570" data-name="Rectangle 1570" width="54.644" height="99.149" transform="translate(54.644 60.12)" fill="#030303" opacity="0.155"/>
      <path id="Path_13901" data-name="Path 13901" d="M271.909,143.947l4.575,21.7H257.068l4.575-21.7a9.708,9.708,0,1,1,10.266,0Z" transform="translate(-212.643 -30.623)" fill="#263238"/>
    </g>
  </g>
</svg>
