<svg xmlns="http://www.w3.org/2000/svg" width="14.574" height="17.67" viewBox="0 0 14.574 17.67">
  <g id="officer" transform="translate(-73.3 -41.495)">
    <g id="Group_15066" data-name="Group 15066" transform="translate(73.3 41.495)">
      <g id="Group_15065" data-name="Group 15065" transform="translate(0 0)">
        <path id="Path_14369" data-name="Path 14369" d="M76,254.531a.2.2,0,0,1,.2.2v3.326h3.062l.714-4.131-.455-.661-.5.316a.205.205,0,0,1-.105.029.2.2,0,0,1-.153-.072L76.281,250.4a4.343,4.343,0,0,0-.431.187,4.063,4.063,0,0,0-1.519,1.332,3.818,3.818,0,0,0-.474,1.035,20.818,20.818,0,0,0-.556,5.09h2.506v-3.326A.185.185,0,0,1,76,254.531Z" transform="translate(-73.3 -240.388)" fill="#fff" fill-rule="evenodd"/>
        <path id="Path_14370" data-name="Path 14370" d="M205.7,330.983h1.874L206.889,327h-.5Z" transform="translate(-199.355 -313.317)" fill="#fff" fill-rule="evenodd"/>
        <path id="Path_14371" data-name="Path 14371" d="M210.764,297.859l.417-.546-.805-.513-.676.431.436.628Z" transform="translate(-203.163 -284.565)" fill="#fff" fill-rule="evenodd"/>
        <path id="Path_14372" data-name="Path 14372" d="M147.222,247.295l-2.363-2.219a4.29,4.29,0,0,0-1.16.134l2.276,2.88Z" transform="translate(-140.326 -235.318)" fill="#fff" fill-rule="evenodd"/>
        <path id="Path_14373" data-name="Path 14373" d="M239.025,253.135a.219.219,0,0,1-.105-.029l-.374-.235-.446.585.714,4.126h3.307v-3.326a.2.2,0,0,1,.2-.2.194.194,0,0,1,.2.2v3.326h2.262a20.818,20.818,0,0,0-.556-5.09,3.9,3.9,0,0,0-.474-1.035,4.063,4.063,0,0,0-1.519-1.332,3.941,3.941,0,0,0-.542-.225l-2.506,3.173A.222.222,0,0,1,239.025,253.135Z" transform="translate(-230.202 -239.912)" fill="#fff" fill-rule="evenodd"/>
        <path id="Path_14374" data-name="Path 14374" d="M234.042,245.166a4.169,4.169,0,0,0-1.05-.105l-.8.709-1.7,1.51,1.246.791Z" transform="translate(-222.966 -235.303)" fill="#fff" fill-rule="evenodd"/>
        <path id="Path_14375" data-name="Path 14375" d="M159.187,43.968a1.748,1.748,0,0,0-.489-.915,2.7,2.7,0,0,0-.278-.225,2.453,2.453,0,0,1-.355-.288,1.281,1.281,0,0,1-.24-.407,1.292,1.292,0,0,0-.125-.244.792.792,0,0,0-.46-.268,4.268,4.268,0,0,0-.8-.115,5.284,5.284,0,0,0-1.423.11,5.346,5.346,0,0,0-2.358,1.107,2.77,2.77,0,0,0-.613.867,4.053,4.053,0,0,0,.014,1.193v.024a1.26,1.26,0,0,1,.58-.666,2.669,2.669,0,0,1,1.1-.235l.043,0c.987-.067,1.917-.048,1.927-.048h.019a1.274,1.274,0,0,0,.762-.144,1.01,1.01,0,0,0,.326-.34.223.223,0,0,1,.149-.105.215.215,0,0,1,.053,0,.512.512,0,0,1,.288.125l.01,0a2.8,2.8,0,0,1,.379.312,4.182,4.182,0,0,1,.312.364,6.415,6.415,0,0,1,.681,1.05c.091-.134.2-.3.23-.345A1.3,1.3,0,0,0,159.187,43.968Z" transform="translate(-148.246 -41.495)" fill="#fff" fill-rule="evenodd"/>
        <path id="Path_14376" data-name="Path 14376" d="M193.9,227.357a2.984,2.984,0,0,1-.57.2,2.869,2.869,0,0,1-.657.072,3.164,3.164,0,0,1-.666-.072,3.015,3.015,0,0,1-.714-.259,1.341,1.341,0,0,1,0,.2,2.969,2.969,0,0,1-.3,1.165l1.572,1.476,1.644-1.466a2.9,2.9,0,0,1-.316-1.174C193.9,227.449,193.9,227.4,193.9,227.357Z" transform="translate(-185.359 -218.395)" fill="#fff" fill-rule="evenodd"/>
        <path id="Path_14377" data-name="Path 14377" d="M154.145,89.092a5.571,5.571,0,0,0-.69-1.083,2.339,2.339,0,0,0-.609-.594l-.01,0s-.01,0-.019-.01a1.363,1.363,0,0,1-.374.35,1.661,1.661,0,0,1-.978.2h-.019c-.01,0-.915-.019-1.888.048l-.043,0a2.466,2.466,0,0,0-.949.192,1.3,1.3,0,0,0-.542.987.212.212,0,0,1-.086.139,1.07,1.07,0,0,0-.374,1.074,1.18,1.18,0,0,0,.776.872.2.2,0,0,1,.139.158,3.723,3.723,0,0,0,.163.69,3.048,3.048,0,0,0,.911,1.3c.062.048.125.1.192.144a3.044,3.044,0,0,0,.978.441,2.66,2.66,0,0,0,1.15,0,2.493,2.493,0,0,0,.829-.364.705.705,0,0,0,.062-.043,2.794,2.794,0,0,0,.585-.542,3.742,3.742,0,0,0,.762-1.658.2.2,0,0,1,.158-.153c.35-.058.69-.57.728-1.093a.734.734,0,0,0-.364-.762.281.281,0,0,0-.105-.024h-.105a.207.207,0,0,1-.125-.043,8.521,8.521,0,0,1-.01-.01l-.01-.01a.693.693,0,0,1-.134-.206Z" transform="translate(-143.98 -85.2)" fill="#fff" fill-rule="evenodd"/>
      </g>
    </g>
  </g>
</svg>
