<svg xmlns="http://www.w3.org/2000/svg" width="28.5" height="28.5" viewBox="0 0 28.5 28.5">
  <g id="phone-call_3_" data-name="phone-call (3)" transform="translate(0 0)">
    <g id="Group_15028" data-name="Group 15028" transform="translate(0 0)">
      <path id="Path_14349" data-name="Path 14349" d="M24.325,4.172A14.25,14.25,0,1,0,28.5,14.247,14.25,14.25,0,0,0,24.325,4.172ZM21.581,19.85l0,0v0l-.722.717a3.8,3.8,0,0,1-3.586,1.026A12.627,12.627,0,0,1,13.6,19.947a16.943,16.943,0,0,1-2.893-2.332A17.073,17.073,0,0,1,8.55,14.993a13.3,13.3,0,0,1-1.625-3.287,3.8,3.8,0,0,1,.95-3.881l.845-.845a.6.6,0,0,1,.853,0l0,0,2.67,2.67a.6.6,0,0,1,0,.853l0,0-1.568,1.568a1.278,1.278,0,0,0-.133,1.663,18.332,18.332,0,0,0,1.876,2.19A18.22,18.22,0,0,0,14.891,18a1.287,1.287,0,0,0,1.644-.143l1.515-1.539a.6.6,0,0,1,.853,0l0,0L21.579,19A.6.6,0,0,1,21.581,19.85Z" transform="translate(0 0)" fill="#f06e38"/>
    </g>
  </g>
</svg>
