<svg id="report" xmlns="http://www.w3.org/2000/svg" width="22.852" height="30" viewBox="0 0 22.852 30">
  <path id="Path_10782" data-name="Path 10782" d="M65.395,30H82.973a.879.879,0,0,0,.879-.879V4.453a.879.879,0,0,0-.879-.879H80.336V.879A.879.879,0,0,0,79.457,0H61.879A.879.879,0,0,0,61,.879V25.605a.879.879,0,0,0,.879.879h2.637v2.637A.879.879,0,0,0,65.395,30Zm14.941-4.395V5.332h1.758v22.91H66.273V26.484H79.457A.879.879,0,0,0,80.336,25.605Zm-17.578-.879V1.758h15.82V24.727Z" transform="translate(-61)" fill="#f06e38"/>
  <path id="Path_10783" data-name="Path 10783" d="M121.879,92.758h5.273a.879.879,0,0,0,0-1.758h-5.273a.879.879,0,0,0,0,1.758Z" transform="translate(-117.484 -85.668)" fill="#f06e38"/>
  <path id="Path_10784" data-name="Path 10784" d="M132.426,151H121.879a.879.879,0,1,0,0,1.758h10.547a.879.879,0,0,0,0-1.758Z" transform="translate(-117.484 -142.152)" fill="#f06e38"/>
  <path id="Path_10785" data-name="Path 10785" d="M132.426,211H121.879a.879.879,0,0,0,0,1.758h10.547a.879.879,0,0,0,0-1.758Z" transform="translate(-117.484 -198.637)" fill="#f06e38"/>
  <path id="Path_10786" data-name="Path 10786" d="M132.426,271H121.879a.879.879,0,1,0,0,1.758h10.547a.879.879,0,1,0,0-1.758Z" transform="translate(-117.484 -255.121)" fill="#f06e38"/>
  <path id="Path_10787" data-name="Path 10787" d="M245.395,331h-3.516a.879.879,0,1,0,0,1.758h3.516a.879.879,0,0,0,0-1.758Z" transform="translate(-230.453 -311.605)" fill="#f06e38"/>
</svg>
