<svg id="right-arrow" xmlns="http://www.w3.org/2000/svg" width="27.264" height="22.682" viewBox="0 0 27.264 22.682">
  <g id="Group_15054" data-name="Group 15054" transform="translate(0 0)">
    <path id="Path_14360" data-name="Path 14360" d="M.436,51.628l9.846-9.846a1.5,1.5,0,0,1,2.11,0l.894.894a1.481,1.481,0,0,1,.436,1.055,1.51,1.51,0,0,1-.436,1.068L7.542,50.555H25.791a1.456,1.456,0,0,1,1.473,1.467v1.264a1.512,1.512,0,0,1-1.473,1.532H7.477l5.809,5.789a1.478,1.478,0,0,1,0,2.1l-.894.891a1.5,1.5,0,0,1-2.11,0L.436,53.746a1.5,1.5,0,0,1,0-2.118Z" transform="translate(0 -41.346)" fill="#f06e38"/>
  </g>
</svg>
