<svg xmlns="http://www.w3.org/2000/svg" width="112.581" height="89.289" viewBox="0 0 112.581 89.289">
  <g id="upload." transform="translate(-3 -9)" opacity="0.253">
    <path id="Path_14402" data-name="Path 14402" d="M105.147,73.48a1.941,1.941,0,1,1-2.425,3.031L96.171,71.27V86.642a1.941,1.941,0,1,1-3.882,0V71.27l-6.552,5.241a1.941,1.941,0,1,1-2.425-3.031l9.706-7.764a1.941,1.941,0,0,1,2.424,0Zm10.434,3.457a21.343,21.343,0,0,1-42.332,3.882H8.823A5.83,5.83,0,0,1,3,75V14.823A5.83,5.83,0,0,1,8.823,9H90.347a5.83,5.83,0,0,1,5.823,5.823V55.684a21.374,21.374,0,0,1,19.411,21.253ZM6.882,14.823V73.831L34.82,38.908a3.882,3.882,0,0,1,6.191.169l10.52,13.76L62.208,42.159a3.8,3.8,0,0,1,2.96-1.132,3.884,3.884,0,0,1,2.817,1.451L82.9,58.871a21.178,21.178,0,0,1,9.389-3.188V14.823a1.944,1.944,0,0,0-1.941-1.941H8.823A1.944,1.944,0,0,0,6.882,14.823ZM37.889,41.384,9.37,76.937h55.7ZM72.878,76.937a21.275,21.275,0,0,1,6.928-15.7L65.032,45,53.915,55.956l16.04,20.981Zm38.821,0A17.469,17.469,0,1,0,94.229,94.406,17.469,17.469,0,0,0,111.7,76.937ZM65.114,26.469a9.705,9.705,0,1,1,9.705,9.705A9.705,9.705,0,0,1,65.114,26.469Zm3.882,0a5.823,5.823,0,1,0,5.823-5.823A5.823,5.823,0,0,0,69,26.469Z" transform="translate(0 0)"/>
  </g>
</svg>
