<svg xmlns="http://www.w3.org/2000/svg" width="32.401" height="20.945" viewBox="0 0 32.401 20.945">
  <g id="view" transform="translate(0 -91.866)">
    <circle id="Ellipse_3225" data-name="Ellipse 3225" cx="4.988" cy="4.988" r="4.988" transform="translate(11.213 97.353)" fill="#f06e38"/>
    <path id="Path_14350" data-name="Path 14350" d="M31.9,100.959c-3.834-4.633-9.638-9.093-15.7-9.093S4.329,96.329.5,100.959a2.169,2.169,0,0,0,0,2.763,32.471,32.471,0,0,0,5.68,5.375c6.793,4.945,13.238,4.956,20.046,0a32.471,32.471,0,0,0,5.68-5.375A2.169,2.169,0,0,0,31.9,100.959Zm-15.7-5.6a6.983,6.983,0,1,1-6.983,6.983A6.991,6.991,0,0,1,16.2,95.358Z" fill="#f06e38"/>
  </g>
</svg>
