<svg xmlns="http://www.w3.org/2000/svg" width="35.349" height="22.527" viewBox="0 0 35.349 22.527">
  <g id="view" transform="translate(0 0)">
    <g id="Group_1470" data-name="Group 1470" transform="translate(0 0)">
      <g id="Group_1469" data-name="Group 1469">
        <path id="Path_10667" data-name="Path 10667" d="M35.124,103.411c-.316-.432-7.84-10.576-17.45-10.576S.54,102.979.224,103.411a1.166,1.166,0,0,0,0,1.375c.315.432,7.84,10.576,17.45,10.576s17.134-10.144,17.45-10.576A1.165,1.165,0,0,0,35.124,103.411Zm-17.45,9.621c-7.079,0-13.21-6.733-15.024-8.934,1.813-2.2,7.931-8.932,15.024-8.932,7.078,0,13.209,6.732,15.024,8.934C30.886,106.3,24.768,113.032,17.674,113.032Z" transform="translate(0 -92.835)" fill="#f06e38"/>
      </g>
    </g>
    <g id="Group_1472" data-name="Group 1472" transform="translate(10.682 4.274)">
      <g id="Group_1471" data-name="Group 1471">
        <path id="Path_10668" data-name="Path 10668" d="M161.714,154.725a6.991,6.991,0,1,0,6.992,6.991A7,7,0,0,0,161.714,154.725Zm0,11.652a4.661,4.661,0,1,1,4.661-4.661A4.666,4.666,0,0,1,161.714,166.377Z" transform="translate(-154.722 -154.725)" fill="#f06e38"/>
      </g>
    </g>
  </g>
</svg>
